<?xml version="1.0" encoding="utf-8" standalone="no"?>
<!DOCTYPE svg PUBLIC "-//W3C//DTD SVG 1.1//EN"
  "http://www.w3.org/Graphics/SVG/1.1/DTD/svg11.dtd">
<!-- Created with matplotlib (https://matplotlib.org/) -->
<svg height="288pt" version="1.1" viewBox="0 0 432 288" width="432pt" xmlns="http://www.w3.org/2000/svg" xmlns:xlink="http://www.w3.org/1999/xlink">
 <defs>
  <style type="text/css">
*{stroke-linecap:butt;stroke-linejoin:round;}
  </style>
 </defs>
 <g id="figure_1">
  <g id="patch_1">
   <path d="M 0 288 
L 432 288 
L 432 0 
L 0 0 
z
" style="fill:#ffffff;"/>
  </g>
  <g id="axes_1">
   <g id="patch_2">
    <path d="M 68.920078 232.24 
L 408.809277 232.24 
L 408.809277 18.96 
L 68.920078 18.96 
z
" style="fill:#eaeaf2;"/>
   </g>
   <g id="matplotlib.axis_1">
    <g id="xtick_1">
     <g id="line2d_1">
      <path clip-path="url(#p0195180eb3)" d="M 106.686261 232.24 
L 106.686261 18.96 
" style="fill:none;stroke:#ffffff;stroke-linecap:round;"/>
     </g>
     <g id="text_1">
      <!-- $\mathdefault{10^{5}}$ -->
      <defs>
       <path d="M 12.40625 8.296875 
L 28.515625 8.296875 
L 28.515625 63.921875 
L 10.984375 60.40625 
L 10.984375 69.390625 
L 28.421875 72.90625 
L 38.28125 72.90625 
L 38.28125 8.296875 
L 54.390625 8.296875 
L 54.390625 0 
L 12.40625 0 
z
" id="DejaVuSans-49"/>
       <path d="M 31.78125 66.40625 
Q 24.171875 66.40625 20.328125 58.90625 
Q 16.5 51.421875 16.5 36.375 
Q 16.5 21.390625 20.328125 13.890625 
Q 24.171875 6.390625 31.78125 6.390625 
Q 39.453125 6.390625 43.28125 13.890625 
Q 47.125 21.390625 47.125 36.375 
Q 47.125 51.421875 43.28125 58.90625 
Q 39.453125 66.40625 31.78125 66.40625 
z
M 31.78125 74.21875 
Q 44.046875 74.21875 50.515625 64.515625 
Q 56.984375 54.828125 56.984375 36.375 
Q 56.984375 17.96875 50.515625 8.265625 
Q 44.046875 -1.421875 31.78125 -1.421875 
Q 19.53125 -1.421875 13.0625 8.265625 
Q 6.59375 17.96875 6.59375 36.375 
Q 6.59375 54.828125 13.0625 64.515625 
Q 19.53125 74.21875 31.78125 74.21875 
z
" id="DejaVuSans-48"/>
       <path d="M 10.796875 72.90625 
L 49.515625 72.90625 
L 49.515625 64.59375 
L 19.828125 64.59375 
L 19.828125 46.734375 
Q 21.96875 47.46875 24.109375 47.828125 
Q 26.265625 48.1875 28.421875 48.1875 
Q 40.625 48.1875 47.75 41.5 
Q 54.890625 34.8125 54.890625 23.390625 
Q 54.890625 11.625 47.5625 5.09375 
Q 40.234375 -1.421875 26.90625 -1.421875 
Q 22.3125 -1.421875 17.546875 -0.640625 
Q 12.796875 0.140625 7.71875 1.703125 
L 7.71875 11.625 
Q 12.109375 9.234375 16.796875 8.0625 
Q 21.484375 6.890625 26.703125 6.890625 
Q 35.15625 6.890625 40.078125 11.328125 
Q 45.015625 15.765625 45.015625 23.390625 
Q 45.015625 31 40.078125 35.4375 
Q 35.15625 39.890625 26.703125 39.890625 
Q 22.75 39.890625 18.8125 39.015625 
Q 14.890625 38.140625 10.796875 36.28125 
z
" id="DejaVuSans-53"/>
      </defs>
      <g style="fill:#262626;" transform="translate(97.006261 252.598281)scale(0.11 -0.11)">
       <use transform="translate(0 0.684375)" xlink:href="#DejaVuSans-49"/>
       <use transform="translate(63.623047 0.684375)" xlink:href="#DejaVuSans-48"/>
       <use transform="translate(128.203125 38.965625)scale(0.7)" xlink:href="#DejaVuSans-53"/>
      </g>
     </g>
    </g>
    <g id="xtick_2">
     <g id="line2d_2">
      <path clip-path="url(#p0195180eb3)" d="M 182.217015 232.24 
L 182.217015 18.96 
" style="fill:none;stroke:#ffffff;stroke-linecap:round;"/>
     </g>
     <g id="text_2">
      <!-- $\mathdefault{10^{6}}$ -->
      <defs>
       <path d="M 33.015625 40.375 
Q 26.375 40.375 22.484375 35.828125 
Q 18.609375 31.296875 18.609375 23.390625 
Q 18.609375 15.53125 22.484375 10.953125 
Q 26.375 6.390625 33.015625 6.390625 
Q 39.65625 6.390625 43.53125 10.953125 
Q 47.40625 15.53125 47.40625 23.390625 
Q 47.40625 31.296875 43.53125 35.828125 
Q 39.65625 40.375 33.015625 40.375 
z
M 52.59375 71.296875 
L 52.59375 62.3125 
Q 48.875 64.0625 45.09375 64.984375 
Q 41.3125 65.921875 37.59375 65.921875 
Q 27.828125 65.921875 22.671875 59.328125 
Q 17.53125 52.734375 16.796875 39.40625 
Q 19.671875 43.65625 24.015625 45.921875 
Q 28.375 48.1875 33.59375 48.1875 
Q 44.578125 48.1875 50.953125 41.515625 
Q 57.328125 34.859375 57.328125 23.390625 
Q 57.328125 12.15625 50.6875 5.359375 
Q 44.046875 -1.421875 33.015625 -1.421875 
Q 20.359375 -1.421875 13.671875 8.265625 
Q 6.984375 17.96875 6.984375 36.375 
Q 6.984375 53.65625 15.1875 63.9375 
Q 23.390625 74.21875 37.203125 74.21875 
Q 40.921875 74.21875 44.703125 73.484375 
Q 48.484375 72.75 52.59375 71.296875 
z
" id="DejaVuSans-54"/>
      </defs>
      <g style="fill:#262626;" transform="translate(172.537015 252.598281)scale(0.11 -0.11)">
       <use transform="translate(0 0.765625)" xlink:href="#DejaVuSans-49"/>
       <use transform="translate(63.623047 0.765625)" xlink:href="#DejaVuSans-48"/>
       <use transform="translate(128.203125 39.046875)scale(0.7)" xlink:href="#DejaVuSans-54"/>
      </g>
     </g>
    </g>
    <g id="xtick_3">
     <g id="line2d_3">
      <path clip-path="url(#p0195180eb3)" d="M 257.747769 232.24 
L 257.747769 18.96 
" style="fill:none;stroke:#ffffff;stroke-linecap:round;"/>
     </g>
     <g id="text_3">
      <!-- $\mathdefault{10^{7}}$ -->
      <defs>
       <path d="M 8.203125 72.90625 
L 55.078125 72.90625 
L 55.078125 68.703125 
L 28.609375 0 
L 18.3125 0 
L 43.21875 64.59375 
L 8.203125 64.59375 
z
" id="DejaVuSans-55"/>
      </defs>
      <g style="fill:#262626;" transform="translate(248.067769 252.598281)scale(0.11 -0.11)">
       <use transform="translate(0 0.684375)" xlink:href="#DejaVuSans-49"/>
       <use transform="translate(63.623047 0.684375)" xlink:href="#DejaVuSans-48"/>
       <use transform="translate(128.203125 38.965625)scale(0.7)" xlink:href="#DejaVuSans-55"/>
      </g>
     </g>
    </g>
    <g id="xtick_4">
     <g id="line2d_4">
      <path clip-path="url(#p0195180eb3)" d="M 333.278523 232.24 
L 333.278523 18.96 
" style="fill:none;stroke:#ffffff;stroke-linecap:round;"/>
     </g>
     <g id="text_4">
      <!-- $\mathdefault{10^{8}}$ -->
      <defs>
       <path d="M 31.78125 34.625 
Q 24.75 34.625 20.71875 30.859375 
Q 16.703125 27.09375 16.703125 20.515625 
Q 16.703125 13.921875 20.71875 10.15625 
Q 24.75 6.390625 31.78125 6.390625 
Q 38.8125 6.390625 42.859375 10.171875 
Q 46.921875 13.96875 46.921875 20.515625 
Q 46.921875 27.09375 42.890625 30.859375 
Q 38.875 34.625 31.78125 34.625 
z
M 21.921875 38.8125 
Q 15.578125 40.375 12.03125 44.71875 
Q 8.5 49.078125 8.5 55.328125 
Q 8.5 64.0625 14.71875 69.140625 
Q 20.953125 74.21875 31.78125 74.21875 
Q 42.671875 74.21875 48.875 69.140625 
Q 55.078125 64.0625 55.078125 55.328125 
Q 55.078125 49.078125 51.53125 44.71875 
Q 48 40.375 41.703125 38.8125 
Q 48.828125 37.15625 52.796875 32.3125 
Q 56.78125 27.484375 56.78125 20.515625 
Q 56.78125 9.90625 50.3125 4.234375 
Q 43.84375 -1.421875 31.78125 -1.421875 
Q 19.734375 -1.421875 13.25 4.234375 
Q 6.78125 9.90625 6.78125 20.515625 
Q 6.78125 27.484375 10.78125 32.3125 
Q 14.796875 37.15625 21.921875 38.8125 
z
M 18.3125 54.390625 
Q 18.3125 48.734375 21.84375 45.5625 
Q 25.390625 42.390625 31.78125 42.390625 
Q 38.140625 42.390625 41.71875 45.5625 
Q 45.3125 48.734375 45.3125 54.390625 
Q 45.3125 60.0625 41.71875 63.234375 
Q 38.140625 66.40625 31.78125 66.40625 
Q 25.390625 66.40625 21.84375 63.234375 
Q 18.3125 60.0625 18.3125 54.390625 
z
" id="DejaVuSans-56"/>
      </defs>
      <g style="fill:#262626;" transform="translate(323.598523 252.598281)scale(0.11 -0.11)">
       <use transform="translate(0 0.765625)" xlink:href="#DejaVuSans-49"/>
       <use transform="translate(63.623047 0.765625)" xlink:href="#DejaVuSans-48"/>
       <use transform="translate(128.203125 39.046875)scale(0.7)" xlink:href="#DejaVuSans-56"/>
      </g>
     </g>
    </g>
    <g id="xtick_5">
     <g id="line2d_5">
      <path clip-path="url(#p0195180eb3)" d="M 408.809277 232.24 
L 408.809277 18.96 
" style="fill:none;stroke:#ffffff;stroke-linecap:round;"/>
     </g>
     <g id="text_5">
      <!-- $\mathdefault{10^{9}}$ -->
      <defs>
       <path d="M 10.984375 1.515625 
L 10.984375 10.5 
Q 14.703125 8.734375 18.5 7.8125 
Q 22.3125 6.890625 25.984375 6.890625 
Q 35.75 6.890625 40.890625 13.453125 
Q 46.046875 20.015625 46.78125 33.40625 
Q 43.953125 29.203125 39.59375 26.953125 
Q 35.25 24.703125 29.984375 24.703125 
Q 19.046875 24.703125 12.671875 31.3125 
Q 6.296875 37.9375 6.296875 49.421875 
Q 6.296875 60.640625 12.9375 67.421875 
Q 19.578125 74.21875 30.609375 74.21875 
Q 43.265625 74.21875 49.921875 64.515625 
Q 56.59375 54.828125 56.59375 36.375 
Q 56.59375 19.140625 48.40625 8.859375 
Q 40.234375 -1.421875 26.421875 -1.421875 
Q 22.703125 -1.421875 18.890625 -0.6875 
Q 15.09375 0.046875 10.984375 1.515625 
z
M 30.609375 32.421875 
Q 37.25 32.421875 41.125 36.953125 
Q 45.015625 41.5 45.015625 49.421875 
Q 45.015625 57.28125 41.125 61.84375 
Q 37.25 66.40625 30.609375 66.40625 
Q 23.96875 66.40625 20.09375 61.84375 
Q 16.21875 57.28125 16.21875 49.421875 
Q 16.21875 41.5 20.09375 36.953125 
Q 23.96875 32.421875 30.609375 32.421875 
z
" id="DejaVuSans-57"/>
      </defs>
      <g style="fill:#262626;" transform="translate(399.129277 252.598281)scale(0.11 -0.11)">
       <use transform="translate(0 0.765625)" xlink:href="#DejaVuSans-49"/>
       <use transform="translate(63.623047 0.765625)" xlink:href="#DejaVuSans-48"/>
       <use transform="translate(128.203125 39.046875)scale(0.7)" xlink:href="#DejaVuSans-57"/>
      </g>
     </g>
    </g>
    <g id="xtick_6"/>
    <g id="xtick_7"/>
    <g id="xtick_8"/>
    <g id="xtick_9"/>
    <g id="xtick_10"/>
    <g id="xtick_11"/>
    <g id="xtick_12"/>
    <g id="xtick_13"/>
    <g id="xtick_14"/>
    <g id="xtick_15"/>
    <g id="xtick_16"/>
    <g id="xtick_17"/>
    <g id="xtick_18"/>
    <g id="xtick_19"/>
    <g id="xtick_20"/>
    <g id="xtick_21"/>
    <g id="xtick_22"/>
    <g id="xtick_23"/>
    <g id="xtick_24"/>
    <g id="xtick_25"/>
    <g id="xtick_26"/>
    <g id="xtick_27"/>
    <g id="xtick_28"/>
    <g id="xtick_29"/>
    <g id="xtick_30"/>
    <g id="xtick_31"/>
    <g id="xtick_32"/>
    <g id="xtick_33"/>
    <g id="xtick_34"/>
    <g id="xtick_35"/>
    <g id="xtick_36"/>
    <g id="xtick_37"/>
    <g id="xtick_38"/>
    <g id="xtick_39"/>
    <g id="xtick_40"/>
    <g id="xtick_41"/>
    <g id="xtick_42"/>
    <g id="xtick_43"/>
    <g id="text_6">
     <!-- Number of operations (size of the array) -->
     <defs>
      <path d="M 9.8125 72.90625 
L 23.09375 72.90625 
L 55.421875 11.921875 
L 55.421875 72.90625 
L 64.984375 72.90625 
L 64.984375 0 
L 51.703125 0 
L 19.390625 60.984375 
L 19.390625 0 
L 9.8125 0 
z
" id="DejaVuSans-78"/>
      <path d="M 8.5 21.578125 
L 8.5 54.6875 
L 17.484375 54.6875 
L 17.484375 21.921875 
Q 17.484375 14.15625 20.5 10.265625 
Q 23.53125 6.390625 29.59375 6.390625 
Q 36.859375 6.390625 41.078125 11.03125 
Q 45.3125 15.671875 45.3125 23.6875 
L 45.3125 54.6875 
L 54.296875 54.6875 
L 54.296875 0 
L 45.3125 0 
L 45.3125 8.40625 
Q 42.046875 3.421875 37.71875 1 
Q 33.40625 -1.421875 27.6875 -1.421875 
Q 18.265625 -1.421875 13.375 4.4375 
Q 8.5 10.296875 8.5 21.578125 
z
M 31.109375 56 
z
" id="DejaVuSans-117"/>
      <path d="M 52 44.1875 
Q 55.375 50.25 60.0625 53.125 
Q 64.75 56 71.09375 56 
Q 79.640625 56 84.28125 50.015625 
Q 88.921875 44.046875 88.921875 33.015625 
L 88.921875 0 
L 79.890625 0 
L 79.890625 32.71875 
Q 79.890625 40.578125 77.09375 44.375 
Q 74.3125 48.1875 68.609375 48.1875 
Q 61.625 48.1875 57.5625 43.546875 
Q 53.515625 38.921875 53.515625 30.90625 
L 53.515625 0 
L 44.484375 0 
L 44.484375 32.71875 
Q 44.484375 40.625 41.703125 44.40625 
Q 38.921875 48.1875 33.109375 48.1875 
Q 26.21875 48.1875 22.15625 43.53125 
Q 18.109375 38.875 18.109375 30.90625 
L 18.109375 0 
L 9.078125 0 
L 9.078125 54.6875 
L 18.109375 54.6875 
L 18.109375 46.1875 
Q 21.1875 51.21875 25.484375 53.609375 
Q 29.78125 56 35.6875 56 
Q 41.65625 56 45.828125 52.96875 
Q 50 49.953125 52 44.1875 
z
" id="DejaVuSans-109"/>
      <path d="M 48.6875 27.296875 
Q 48.6875 37.203125 44.609375 42.84375 
Q 40.53125 48.484375 33.40625 48.484375 
Q 26.265625 48.484375 22.1875 42.84375 
Q 18.109375 37.203125 18.109375 27.296875 
Q 18.109375 17.390625 22.1875 11.75 
Q 26.265625 6.109375 33.40625 6.109375 
Q 40.53125 6.109375 44.609375 11.75 
Q 48.6875 17.390625 48.6875 27.296875 
z
M 18.109375 46.390625 
Q 20.953125 51.265625 25.265625 53.625 
Q 29.59375 56 35.59375 56 
Q 45.5625 56 51.78125 48.09375 
Q 58.015625 40.1875 58.015625 27.296875 
Q 58.015625 14.40625 51.78125 6.484375 
Q 45.5625 -1.421875 35.59375 -1.421875 
Q 29.59375 -1.421875 25.265625 0.953125 
Q 20.953125 3.328125 18.109375 8.203125 
L 18.109375 0 
L 9.078125 0 
L 9.078125 75.984375 
L 18.109375 75.984375 
z
" id="DejaVuSans-98"/>
      <path d="M 56.203125 29.59375 
L 56.203125 25.203125 
L 14.890625 25.203125 
Q 15.484375 15.921875 20.484375 11.0625 
Q 25.484375 6.203125 34.421875 6.203125 
Q 39.59375 6.203125 44.453125 7.46875 
Q 49.3125 8.734375 54.109375 11.28125 
L 54.109375 2.78125 
Q 49.265625 0.734375 44.1875 -0.34375 
Q 39.109375 -1.421875 33.890625 -1.421875 
Q 20.796875 -1.421875 13.15625 6.1875 
Q 5.515625 13.8125 5.515625 26.8125 
Q 5.515625 40.234375 12.765625 48.109375 
Q 20.015625 56 32.328125 56 
Q 43.359375 56 49.78125 48.890625 
Q 56.203125 41.796875 56.203125 29.59375 
z
M 47.21875 32.234375 
Q 47.125 39.59375 43.09375 43.984375 
Q 39.0625 48.390625 32.421875 48.390625 
Q 24.90625 48.390625 20.390625 44.140625 
Q 15.875 39.890625 15.1875 32.171875 
z
" id="DejaVuSans-101"/>
      <path d="M 41.109375 46.296875 
Q 39.59375 47.171875 37.8125 47.578125 
Q 36.03125 48 33.890625 48 
Q 26.265625 48 22.1875 43.046875 
Q 18.109375 38.09375 18.109375 28.8125 
L 18.109375 0 
L 9.078125 0 
L 9.078125 54.6875 
L 18.109375 54.6875 
L 18.109375 46.1875 
Q 20.953125 51.171875 25.484375 53.578125 
Q 30.03125 56 36.53125 56 
Q 37.453125 56 38.578125 55.875 
Q 39.703125 55.765625 41.0625 55.515625 
z
" id="DejaVuSans-114"/>
      <path id="DejaVuSans-32"/>
      <path d="M 30.609375 48.390625 
Q 23.390625 48.390625 19.1875 42.75 
Q 14.984375 37.109375 14.984375 27.296875 
Q 14.984375 17.484375 19.15625 11.84375 
Q 23.34375 6.203125 30.609375 6.203125 
Q 37.796875 6.203125 41.984375 11.859375 
Q 46.1875 17.53125 46.1875 27.296875 
Q 46.1875 37.015625 41.984375 42.703125 
Q 37.796875 48.390625 30.609375 48.390625 
z
M 30.609375 56 
Q 42.328125 56 49.015625 48.375 
Q 55.71875 40.765625 55.71875 27.296875 
Q 55.71875 13.875 49.015625 6.21875 
Q 42.328125 -1.421875 30.609375 -1.421875 
Q 18.84375 -1.421875 12.171875 6.21875 
Q 5.515625 13.875 5.515625 27.296875 
Q 5.515625 40.765625 12.171875 48.375 
Q 18.84375 56 30.609375 56 
z
" id="DejaVuSans-111"/>
      <path d="M 37.109375 75.984375 
L 37.109375 68.5 
L 28.515625 68.5 
Q 23.6875 68.5 21.796875 66.546875 
Q 19.921875 64.59375 19.921875 59.515625 
L 19.921875 54.6875 
L 34.71875 54.6875 
L 34.71875 47.703125 
L 19.921875 47.703125 
L 19.921875 0 
L 10.890625 0 
L 10.890625 47.703125 
L 2.296875 47.703125 
L 2.296875 54.6875 
L 10.890625 54.6875 
L 10.890625 58.5 
Q 10.890625 67.625 15.140625 71.796875 
Q 19.390625 75.984375 28.609375 75.984375 
z
" id="DejaVuSans-102"/>
      <path d="M 18.109375 8.203125 
L 18.109375 -20.796875 
L 9.078125 -20.796875 
L 9.078125 54.6875 
L 18.109375 54.6875 
L 18.109375 46.390625 
Q 20.953125 51.265625 25.265625 53.625 
Q 29.59375 56 35.59375 56 
Q 45.5625 56 51.78125 48.09375 
Q 58.015625 40.1875 58.015625 27.296875 
Q 58.015625 14.40625 51.78125 6.484375 
Q 45.5625 -1.421875 35.59375 -1.421875 
Q 29.59375 -1.421875 25.265625 0.953125 
Q 20.953125 3.328125 18.109375 8.203125 
z
M 48.6875 27.296875 
Q 48.6875 37.203125 44.609375 42.84375 
Q 40.53125 48.484375 33.40625 48.484375 
Q 26.265625 48.484375 22.1875 42.84375 
Q 18.109375 37.203125 18.109375 27.296875 
Q 18.109375 17.390625 22.1875 11.75 
Q 26.265625 6.109375 33.40625 6.109375 
Q 40.53125 6.109375 44.609375 11.75 
Q 48.6875 17.390625 48.6875 27.296875 
z
" id="DejaVuSans-112"/>
      <path d="M 34.28125 27.484375 
Q 23.390625 27.484375 19.1875 25 
Q 14.984375 22.515625 14.984375 16.5 
Q 14.984375 11.71875 18.140625 8.90625 
Q 21.296875 6.109375 26.703125 6.109375 
Q 34.1875 6.109375 38.703125 11.40625 
Q 43.21875 16.703125 43.21875 25.484375 
L 43.21875 27.484375 
z
M 52.203125 31.203125 
L 52.203125 0 
L 43.21875 0 
L 43.21875 8.296875 
Q 40.140625 3.328125 35.546875 0.953125 
Q 30.953125 -1.421875 24.3125 -1.421875 
Q 15.921875 -1.421875 10.953125 3.296875 
Q 6 8.015625 6 15.921875 
Q 6 25.140625 12.171875 29.828125 
Q 18.359375 34.515625 30.609375 34.515625 
L 43.21875 34.515625 
L 43.21875 35.40625 
Q 43.21875 41.609375 39.140625 45 
Q 35.0625 48.390625 27.6875 48.390625 
Q 23 48.390625 18.546875 47.265625 
Q 14.109375 46.140625 10.015625 43.890625 
L 10.015625 52.203125 
Q 14.9375 54.109375 19.578125 55.046875 
Q 24.21875 56 28.609375 56 
Q 40.484375 56 46.34375 49.84375 
Q 52.203125 43.703125 52.203125 31.203125 
z
" id="DejaVuSans-97"/>
      <path d="M 18.3125 70.21875 
L 18.3125 54.6875 
L 36.8125 54.6875 
L 36.8125 47.703125 
L 18.3125 47.703125 
L 18.3125 18.015625 
Q 18.3125 11.328125 20.140625 9.421875 
Q 21.96875 7.515625 27.59375 7.515625 
L 36.8125 7.515625 
L 36.8125 0 
L 27.59375 0 
Q 17.1875 0 13.234375 3.875 
Q 9.28125 7.765625 9.28125 18.015625 
L 9.28125 47.703125 
L 2.6875 47.703125 
L 2.6875 54.6875 
L 9.28125 54.6875 
L 9.28125 70.21875 
z
" id="DejaVuSans-116"/>
      <path d="M 9.421875 54.6875 
L 18.40625 54.6875 
L 18.40625 0 
L 9.421875 0 
z
M 9.421875 75.984375 
L 18.40625 75.984375 
L 18.40625 64.59375 
L 9.421875 64.59375 
z
" id="DejaVuSans-105"/>
      <path d="M 54.890625 33.015625 
L 54.890625 0 
L 45.90625 0 
L 45.90625 32.71875 
Q 45.90625 40.484375 42.875 44.328125 
Q 39.84375 48.1875 33.796875 48.1875 
Q 26.515625 48.1875 22.3125 43.546875 
Q 18.109375 38.921875 18.109375 30.90625 
L 18.109375 0 
L 9.078125 0 
L 9.078125 54.6875 
L 18.109375 54.6875 
L 18.109375 46.1875 
Q 21.34375 51.125 25.703125 53.5625 
Q 30.078125 56 35.796875 56 
Q 45.21875 56 50.046875 50.171875 
Q 54.890625 44.34375 54.890625 33.015625 
z
" id="DejaVuSans-110"/>
      <path d="M 44.28125 53.078125 
L 44.28125 44.578125 
Q 40.484375 46.53125 36.375 47.5 
Q 32.28125 48.484375 27.875 48.484375 
Q 21.1875 48.484375 17.84375 46.4375 
Q 14.5 44.390625 14.5 40.28125 
Q 14.5 37.15625 16.890625 35.375 
Q 19.28125 33.59375 26.515625 31.984375 
L 29.59375 31.296875 
Q 39.15625 29.25 43.1875 25.515625 
Q 47.21875 21.78125 47.21875 15.09375 
Q 47.21875 7.46875 41.1875 3.015625 
Q 35.15625 -1.421875 24.609375 -1.421875 
Q 20.21875 -1.421875 15.453125 -0.5625 
Q 10.6875 0.296875 5.421875 2 
L 5.421875 11.28125 
Q 10.40625 8.6875 15.234375 7.390625 
Q 20.0625 6.109375 24.8125 6.109375 
Q 31.15625 6.109375 34.5625 8.28125 
Q 37.984375 10.453125 37.984375 14.40625 
Q 37.984375 18.0625 35.515625 20.015625 
Q 33.0625 21.96875 24.703125 23.78125 
L 21.578125 24.515625 
Q 13.234375 26.265625 9.515625 29.90625 
Q 5.8125 33.546875 5.8125 39.890625 
Q 5.8125 47.609375 11.28125 51.796875 
Q 16.75 56 26.8125 56 
Q 31.78125 56 36.171875 55.265625 
Q 40.578125 54.546875 44.28125 53.078125 
z
" id="DejaVuSans-115"/>
      <path d="M 31 75.875 
Q 24.46875 64.65625 21.28125 53.65625 
Q 18.109375 42.671875 18.109375 31.390625 
Q 18.109375 20.125 21.3125 9.0625 
Q 24.515625 -2 31 -13.1875 
L 23.1875 -13.1875 
Q 15.875 -1.703125 12.234375 9.375 
Q 8.59375 20.453125 8.59375 31.390625 
Q 8.59375 42.28125 12.203125 53.3125 
Q 15.828125 64.359375 23.1875 75.875 
z
" id="DejaVuSans-40"/>
      <path d="M 5.515625 54.6875 
L 48.1875 54.6875 
L 48.1875 46.484375 
L 14.40625 7.171875 
L 48.1875 7.171875 
L 48.1875 0 
L 4.296875 0 
L 4.296875 8.203125 
L 38.09375 47.515625 
L 5.515625 47.515625 
z
" id="DejaVuSans-122"/>
      <path d="M 54.890625 33.015625 
L 54.890625 0 
L 45.90625 0 
L 45.90625 32.71875 
Q 45.90625 40.484375 42.875 44.328125 
Q 39.84375 48.1875 33.796875 48.1875 
Q 26.515625 48.1875 22.3125 43.546875 
Q 18.109375 38.921875 18.109375 30.90625 
L 18.109375 0 
L 9.078125 0 
L 9.078125 75.984375 
L 18.109375 75.984375 
L 18.109375 46.1875 
Q 21.34375 51.125 25.703125 53.5625 
Q 30.078125 56 35.796875 56 
Q 45.21875 56 50.046875 50.171875 
Q 54.890625 44.34375 54.890625 33.015625 
z
" id="DejaVuSans-104"/>
      <path d="M 32.171875 -5.078125 
Q 28.375 -14.84375 24.75 -17.8125 
Q 21.140625 -20.796875 15.09375 -20.796875 
L 7.90625 -20.796875 
L 7.90625 -13.28125 
L 13.1875 -13.28125 
Q 16.890625 -13.28125 18.9375 -11.515625 
Q 21 -9.765625 23.484375 -3.21875 
L 25.09375 0.875 
L 2.984375 54.6875 
L 12.5 54.6875 
L 29.59375 11.921875 
L 46.6875 54.6875 
L 56.203125 54.6875 
z
" id="DejaVuSans-121"/>
      <path d="M 8.015625 75.875 
L 15.828125 75.875 
Q 23.140625 64.359375 26.78125 53.3125 
Q 30.421875 42.28125 30.421875 31.390625 
Q 30.421875 20.453125 26.78125 9.375 
Q 23.140625 -1.703125 15.828125 -13.1875 
L 8.015625 -13.1875 
Q 14.5 -2 17.703125 9.0625 
Q 20.90625 20.125 20.90625 31.390625 
Q 20.90625 42.671875 17.703125 53.65625 
Q 14.5 64.65625 8.015625 75.875 
z
" id="DejaVuSans-41"/>
     </defs>
     <g style="fill:#262626;" transform="translate(117.820303 268.004063)scale(0.12 -0.12)">
      <use xlink:href="#DejaVuSans-78"/>
      <use x="74.804688" xlink:href="#DejaVuSans-117"/>
      <use x="138.183594" xlink:href="#DejaVuSans-109"/>
      <use x="235.595703" xlink:href="#DejaVuSans-98"/>
      <use x="299.072266" xlink:href="#DejaVuSans-101"/>
      <use x="360.595703" xlink:href="#DejaVuSans-114"/>
      <use x="401.708984" xlink:href="#DejaVuSans-32"/>
      <use x="433.496094" xlink:href="#DejaVuSans-111"/>
      <use x="494.677734" xlink:href="#DejaVuSans-102"/>
      <use x="529.882812" xlink:href="#DejaVuSans-32"/>
      <use x="561.669922" xlink:href="#DejaVuSans-111"/>
      <use x="622.851562" xlink:href="#DejaVuSans-112"/>
      <use x="686.328125" xlink:href="#DejaVuSans-101"/>
      <use x="747.851562" xlink:href="#DejaVuSans-114"/>
      <use x="788.964844" xlink:href="#DejaVuSans-97"/>
      <use x="850.244141" xlink:href="#DejaVuSans-116"/>
      <use x="889.453125" xlink:href="#DejaVuSans-105"/>
      <use x="917.236328" xlink:href="#DejaVuSans-111"/>
      <use x="978.417969" xlink:href="#DejaVuSans-110"/>
      <use x="1041.796875" xlink:href="#DejaVuSans-115"/>
      <use x="1093.896484" xlink:href="#DejaVuSans-32"/>
      <use x="1125.683594" xlink:href="#DejaVuSans-40"/>
      <use x="1164.697266" xlink:href="#DejaVuSans-115"/>
      <use x="1216.796875" xlink:href="#DejaVuSans-105"/>
      <use x="1244.580078" xlink:href="#DejaVuSans-122"/>
      <use x="1297.070312" xlink:href="#DejaVuSans-101"/>
      <use x="1358.59375" xlink:href="#DejaVuSans-32"/>
      <use x="1390.380859" xlink:href="#DejaVuSans-111"/>
      <use x="1451.5625" xlink:href="#DejaVuSans-102"/>
      <use x="1486.767578" xlink:href="#DejaVuSans-32"/>
      <use x="1518.554688" xlink:href="#DejaVuSans-116"/>
      <use x="1557.763672" xlink:href="#DejaVuSans-104"/>
      <use x="1621.142578" xlink:href="#DejaVuSans-101"/>
      <use x="1682.666016" xlink:href="#DejaVuSans-32"/>
      <use x="1714.453125" xlink:href="#DejaVuSans-97"/>
      <use x="1775.732422" xlink:href="#DejaVuSans-114"/>
      <use x="1816.830078" xlink:href="#DejaVuSans-114"/>
      <use x="1857.943359" xlink:href="#DejaVuSans-97"/>
      <use x="1919.222656" xlink:href="#DejaVuSans-121"/>
      <use x="1978.402344" xlink:href="#DejaVuSans-41"/>
     </g>
    </g>
   </g>
   <g id="matplotlib.axis_2">
    <g id="ytick_1">
     <g id="line2d_6">
      <path clip-path="url(#p0195180eb3)" d="M 68.920078 205.001712 
L 408.809277 205.001712 
" style="fill:none;stroke:#ffffff;stroke-linecap:round;"/>
     </g>
     <g id="text_7">
      <!-- $\mathdefault{10^{-4}}$ -->
      <defs>
       <path d="M 10.59375 35.5 
L 73.1875 35.5 
L 73.1875 27.203125 
L 10.59375 27.203125 
z
" id="DejaVuSans-8722"/>
       <path d="M 37.796875 64.3125 
L 12.890625 25.390625 
L 37.796875 25.390625 
z
M 35.203125 72.90625 
L 47.609375 72.90625 
L 47.609375 25.390625 
L 58.015625 25.390625 
L 58.015625 17.1875 
L 47.609375 17.1875 
L 47.609375 0 
L 37.796875 0 
L 37.796875 17.1875 
L 4.890625 17.1875 
L 4.890625 26.703125 
z
" id="DejaVuSans-52"/>
      </defs>
      <g style="fill:#262626;" transform="translate(31.070078 209.180853)scale(0.11 -0.11)">
       <use transform="translate(0 0.684375)" xlink:href="#DejaVuSans-49"/>
       <use transform="translate(63.623047 0.684375)" xlink:href="#DejaVuSans-48"/>
       <use transform="translate(128.203125 38.965625)scale(0.7)" xlink:href="#DejaVuSans-8722"/>
       <use transform="translate(186.855469 38.965625)scale(0.7)" xlink:href="#DejaVuSans-52"/>
      </g>
     </g>
    </g>
    <g id="ytick_2">
     <g id="line2d_7">
      <path clip-path="url(#p0195180eb3)" d="M 68.920078 167.882219 
L 408.809277 167.882219 
" style="fill:none;stroke:#ffffff;stroke-linecap:round;"/>
     </g>
     <g id="text_8">
      <!-- $\mathdefault{10^{-3}}$ -->
      <defs>
       <path d="M 40.578125 39.3125 
Q 47.65625 37.796875 51.625 33 
Q 55.609375 28.21875 55.609375 21.1875 
Q 55.609375 10.40625 48.1875 4.484375 
Q 40.765625 -1.421875 27.09375 -1.421875 
Q 22.515625 -1.421875 17.65625 -0.515625 
Q 12.796875 0.390625 7.625 2.203125 
L 7.625 11.71875 
Q 11.71875 9.328125 16.59375 8.109375 
Q 21.484375 6.890625 26.8125 6.890625 
Q 36.078125 6.890625 40.9375 10.546875 
Q 45.796875 14.203125 45.796875 21.1875 
Q 45.796875 27.640625 41.28125 31.265625 
Q 36.765625 34.90625 28.71875 34.90625 
L 20.21875 34.90625 
L 20.21875 43.015625 
L 29.109375 43.015625 
Q 36.375 43.015625 40.234375 45.921875 
Q 44.09375 48.828125 44.09375 54.296875 
Q 44.09375 59.90625 40.109375 62.90625 
Q 36.140625 65.921875 28.71875 65.921875 
Q 24.65625 65.921875 20.015625 65.03125 
Q 15.375 64.15625 9.8125 62.3125 
L 9.8125 71.09375 
Q 15.4375 72.65625 20.34375 73.4375 
Q 25.25 74.21875 29.59375 74.21875 
Q 40.828125 74.21875 47.359375 69.109375 
Q 53.90625 64.015625 53.90625 55.328125 
Q 53.90625 49.265625 50.4375 45.09375 
Q 46.96875 40.921875 40.578125 39.3125 
z
" id="DejaVuSans-51"/>
      </defs>
      <g style="fill:#262626;" transform="translate(31.070078 172.061359)scale(0.11 -0.11)">
       <use transform="translate(0 0.765625)" xlink:href="#DejaVuSans-49"/>
       <use transform="translate(63.623047 0.765625)" xlink:href="#DejaVuSans-48"/>
       <use transform="translate(128.203125 39.046875)scale(0.7)" xlink:href="#DejaVuSans-8722"/>
       <use transform="translate(186.855469 39.046875)scale(0.7)" xlink:href="#DejaVuSans-51"/>
      </g>
     </g>
    </g>
    <g id="ytick_3">
     <g id="line2d_8">
      <path clip-path="url(#p0195180eb3)" d="M 68.920078 130.762725 
L 408.809277 130.762725 
" style="fill:none;stroke:#ffffff;stroke-linecap:round;"/>
     </g>
     <g id="text_9">
      <!-- $\mathdefault{10^{-2}}$ -->
      <defs>
       <path d="M 19.1875 8.296875 
L 53.609375 8.296875 
L 53.609375 0 
L 7.328125 0 
L 7.328125 8.296875 
Q 12.9375 14.109375 22.625 23.890625 
Q 32.328125 33.6875 34.8125 36.53125 
Q 39.546875 41.84375 41.421875 45.53125 
Q 43.3125 49.21875 43.3125 52.78125 
Q 43.3125 58.59375 39.234375 62.25 
Q 35.15625 65.921875 28.609375 65.921875 
Q 23.96875 65.921875 18.8125 64.3125 
Q 13.671875 62.703125 7.8125 59.421875 
L 7.8125 69.390625 
Q 13.765625 71.78125 18.9375 73 
Q 24.125 74.21875 28.421875 74.21875 
Q 39.75 74.21875 46.484375 68.546875 
Q 53.21875 62.890625 53.21875 53.421875 
Q 53.21875 48.921875 51.53125 44.890625 
Q 49.859375 40.875 45.40625 35.40625 
Q 44.1875 33.984375 37.640625 27.21875 
Q 31.109375 20.453125 19.1875 8.296875 
z
" id="DejaVuSans-50"/>
      </defs>
      <g style="fill:#262626;" transform="translate(31.070078 134.941865)scale(0.11 -0.11)">
       <use transform="translate(0 0.765625)" xlink:href="#DejaVuSans-49"/>
       <use transform="translate(63.623047 0.765625)" xlink:href="#DejaVuSans-48"/>
       <use transform="translate(128.203125 39.046875)scale(0.7)" xlink:href="#DejaVuSans-8722"/>
       <use transform="translate(186.855469 39.046875)scale(0.7)" xlink:href="#DejaVuSans-50"/>
      </g>
     </g>
    </g>
    <g id="ytick_4">
     <g id="line2d_9">
      <path clip-path="url(#p0195180eb3)" d="M 68.920078 93.643231 
L 408.809277 93.643231 
" style="fill:none;stroke:#ffffff;stroke-linecap:round;"/>
     </g>
     <g id="text_10">
      <!-- $\mathdefault{10^{-1}}$ -->
      <g style="fill:#262626;" transform="translate(31.070078 97.822372)scale(0.11 -0.11)">
       <use transform="translate(0 0.684375)" xlink:href="#DejaVuSans-49"/>
       <use transform="translate(63.623047 0.684375)" xlink:href="#DejaVuSans-48"/>
       <use transform="translate(128.203125 38.965625)scale(0.7)" xlink:href="#DejaVuSans-8722"/>
       <use transform="translate(186.855469 38.965625)scale(0.7)" xlink:href="#DejaVuSans-49"/>
      </g>
     </g>
    </g>
    <g id="ytick_5">
     <g id="line2d_10">
      <path clip-path="url(#p0195180eb3)" d="M 68.920078 56.523737 
L 408.809277 56.523737 
" style="fill:none;stroke:#ffffff;stroke-linecap:round;"/>
     </g>
     <g id="text_11">
      <!-- $\mathdefault{10^{0}}$ -->
      <g style="fill:#262626;" transform="translate(37.560078 60.702878)scale(0.11 -0.11)">
       <use transform="translate(0 0.765625)" xlink:href="#DejaVuSans-49"/>
       <use transform="translate(63.623047 0.765625)" xlink:href="#DejaVuSans-48"/>
       <use transform="translate(128.203125 39.046875)scale(0.7)" xlink:href="#DejaVuSans-48"/>
      </g>
     </g>
    </g>
    <g id="ytick_6">
     <g id="line2d_11">
      <path clip-path="url(#p0195180eb3)" d="M 68.920078 19.404244 
L 408.809277 19.404244 
" style="fill:none;stroke:#ffffff;stroke-linecap:round;"/>
     </g>
     <g id="text_12">
      <!-- $\mathdefault{10^{1}}$ -->
      <g style="fill:#262626;" transform="translate(37.560078 23.583384)scale(0.11 -0.11)">
       <use transform="translate(0 0.684375)" xlink:href="#DejaVuSans-49"/>
       <use transform="translate(63.623047 0.684375)" xlink:href="#DejaVuSans-48"/>
       <use transform="translate(128.203125 38.965625)scale(0.7)" xlink:href="#DejaVuSans-49"/>
      </g>
     </g>
    </g>
    <g id="ytick_7"/>
    <g id="ytick_8"/>
    <g id="ytick_9"/>
    <g id="ytick_10"/>
    <g id="ytick_11"/>
    <g id="ytick_12"/>
    <g id="ytick_13"/>
    <g id="ytick_14"/>
    <g id="ytick_15"/>
    <g id="ytick_16"/>
    <g id="ytick_17"/>
    <g id="ytick_18"/>
    <g id="ytick_19"/>
    <g id="ytick_20"/>
    <g id="ytick_21"/>
    <g id="ytick_22"/>
    <g id="ytick_23"/>
    <g id="ytick_24"/>
    <g id="ytick_25"/>
    <g id="ytick_26"/>
    <g id="ytick_27"/>
    <g id="ytick_28"/>
    <g id="ytick_29"/>
    <g id="ytick_30"/>
    <g id="ytick_31"/>
    <g id="ytick_32"/>
    <g id="ytick_33"/>
    <g id="ytick_34"/>
    <g id="ytick_35"/>
    <g id="ytick_36"/>
    <g id="ytick_37"/>
    <g id="ytick_38"/>
    <g id="ytick_39"/>
    <g id="ytick_40"/>
    <g id="ytick_41"/>
    <g id="ytick_42"/>
    <g id="ytick_43"/>
    <g id="ytick_44"/>
    <g id="ytick_45"/>
    <g id="ytick_46"/>
    <g id="ytick_47"/>
    <g id="ytick_48"/>
    <g id="ytick_49"/>
    <g id="ytick_50"/>
    <g id="ytick_51"/>
    <g id="ytick_52"/>
    <g id="ytick_53"/>
    <g id="ytick_54"/>
    <g id="text_13">
     <!-- Execution time [sec] -->
     <defs>
      <path d="M 9.8125 72.90625 
L 55.90625 72.90625 
L 55.90625 64.59375 
L 19.671875 64.59375 
L 19.671875 43.015625 
L 54.390625 43.015625 
L 54.390625 34.71875 
L 19.671875 34.71875 
L 19.671875 8.296875 
L 56.78125 8.296875 
L 56.78125 0 
L 9.8125 0 
z
" id="DejaVuSans-69"/>
      <path d="M 54.890625 54.6875 
L 35.109375 28.078125 
L 55.90625 0 
L 45.3125 0 
L 29.390625 21.484375 
L 13.484375 0 
L 2.875 0 
L 24.125 28.609375 
L 4.6875 54.6875 
L 15.28125 54.6875 
L 29.78125 35.203125 
L 44.28125 54.6875 
z
" id="DejaVuSans-120"/>
      <path d="M 48.78125 52.59375 
L 48.78125 44.1875 
Q 44.96875 46.296875 41.140625 47.34375 
Q 37.3125 48.390625 33.40625 48.390625 
Q 24.65625 48.390625 19.8125 42.84375 
Q 14.984375 37.3125 14.984375 27.296875 
Q 14.984375 17.28125 19.8125 11.734375 
Q 24.65625 6.203125 33.40625 6.203125 
Q 37.3125 6.203125 41.140625 7.25 
Q 44.96875 8.296875 48.78125 10.40625 
L 48.78125 2.09375 
Q 45.015625 0.34375 40.984375 -0.53125 
Q 36.96875 -1.421875 32.421875 -1.421875 
Q 20.0625 -1.421875 12.78125 6.34375 
Q 5.515625 14.109375 5.515625 27.296875 
Q 5.515625 40.671875 12.859375 48.328125 
Q 20.21875 56 33.015625 56 
Q 37.15625 56 41.109375 55.140625 
Q 45.0625 54.296875 48.78125 52.59375 
z
" id="DejaVuSans-99"/>
      <path d="M 8.59375 75.984375 
L 29.296875 75.984375 
L 29.296875 69 
L 17.578125 69 
L 17.578125 -6.203125 
L 29.296875 -6.203125 
L 29.296875 -13.1875 
L 8.59375 -13.1875 
z
" id="DejaVuSans-91"/>
      <path d="M 30.421875 75.984375 
L 30.421875 -13.1875 
L 9.71875 -13.1875 
L 9.71875 -6.203125 
L 21.390625 -6.203125 
L 21.390625 69 
L 9.71875 69 
L 9.71875 75.984375 
z
" id="DejaVuSans-93"/>
     </defs>
     <g style="fill:#262626;" transform="translate(24.574453 187.393438)rotate(-90)scale(0.12 -0.12)">
      <use xlink:href="#DejaVuSans-69"/>
      <use x="63.183594" xlink:href="#DejaVuSans-120"/>
      <use x="122.316406" xlink:href="#DejaVuSans-101"/>
      <use x="183.839844" xlink:href="#DejaVuSans-99"/>
      <use x="238.820312" xlink:href="#DejaVuSans-117"/>
      <use x="302.199219" xlink:href="#DejaVuSans-116"/>
      <use x="341.408203" xlink:href="#DejaVuSans-105"/>
      <use x="369.191406" xlink:href="#DejaVuSans-111"/>
      <use x="430.373047" xlink:href="#DejaVuSans-110"/>
      <use x="493.751953" xlink:href="#DejaVuSans-32"/>
      <use x="525.539062" xlink:href="#DejaVuSans-116"/>
      <use x="564.748047" xlink:href="#DejaVuSans-105"/>
      <use x="592.53125" xlink:href="#DejaVuSans-109"/>
      <use x="689.943359" xlink:href="#DejaVuSans-101"/>
      <use x="751.466797" xlink:href="#DejaVuSans-32"/>
      <use x="783.253906" xlink:href="#DejaVuSans-91"/>
      <use x="822.267578" xlink:href="#DejaVuSans-115"/>
      <use x="874.367188" xlink:href="#DejaVuSans-101"/>
      <use x="935.890625" xlink:href="#DejaVuSans-99"/>
      <use x="990.871094" xlink:href="#DejaVuSans-93"/>
     </g>
    </g>
   </g>
   <g id="line2d_12">
    <path clip-path="url(#p0195180eb3)" d="M 71.64496 134.673398 
L 72.326138 135.286626 
L 73.007198 135.667548 
L 73.68876 135.703349 
L 74.369628 135.308503 
L 75.050423 135.213958 
L 76.413163 134.46184 
L 77.094498 134.369075 
L 77.775434 133.629473 
L 78.456487 132.555401 
L 79.137364 130.877783 
L 79.818536 130.443924 
L 80.4997 129.848234 
L 81.181286 129.855327 
L 81.862285 130.330904 
L 83.22422 132.291646 
L 84.586593 133.972425 
L 85.267935 134.148063 
L 85.948995 134.055821 
L 87.311584 133.353097 
L 87.992529 132.838588 
L 88.673831 131.67125 
L 89.354625 131.397535 
L 90.035748 131.277657 
L 90.716896 130.942318 
L 91.398305 131.140681 
L 92.079162 132.572414 
L 92.760721 133.456874 
L 93.441672 133.468288 
L 94.122729 132.919609 
L 94.804073 133.164157 
L 96.166429 132.494689 
L 96.847334 132.40263 
L 97.528705 133.302624 
L 98.209806 132.515668 
L 98.890783 132.447927 
L 99.571768 132.713724 
L 100.934199 132.910132 
L 101.615447 133.62559 
L 102.977708 133.285194 
L 103.658885 133.421249 
L 105.020968 133.029862 
L 105.702334 133.292982 
L 106.383411 133.261865 
L 107.745552 133.814364 
L 108.426676 134.268206 
L 109.107961 134.104371 
L 109.789115 132.712141 
L 110.470152 131.871876 
L 111.151367 131.269408 
L 111.832465 130.968449 
L 112.513718 130.916525 
L 113.194831 131.980429 
L 114.557098 132.56721 
L 115.238193 132.189779 
L 115.919299 132.133049 
L 116.600615 132.592924 
L 117.281608 132.83256 
L 117.962708 132.797072 
L 118.643854 133.52992 
L 119.324981 133.258679 
L 120.006242 132.733817 
L 120.687345 133.249672 
L 121.368433 133.572433 
L 122.049633 133.408233 
L 123.411815 134.846531 
L 124.093013 134.715946 
L 126.136411 134.85063 
L 126.817679 133.962928 
L 128.179922 133.840902 
L 128.861012 133.253863 
L 129.542141 132.859687 
L 130.223343 133.288221 
L 131.585591 131.943019 
L 132.266683 132.339956 
L 132.947916 131.847265 
L 133.628999 132.036788 
L 134.991286 133.265339 
L 135.672465 133.433352 
L 136.353597 134.424951 
L 137.034662 134.071829 
L 137.715887 133.15308 
L 138.396979 131.2883 
L 140.440405 129.276685 
L 141.12162 129.391428 
L 141.802698 130.553492 
L 142.483802 130.251583 
L 143.164972 130.514672 
L 143.846128 131.061732 
L 144.527298 130.799426 
L 145.208399 131.091907 
L 145.889548 131.240615 
L 146.570651 131.624615 
L 147.251807 131.417987 
L 147.933009 131.575006 
L 148.614151 131.164108 
L 149.295221 131.361768 
L 149.976377 130.627606 
L 150.657501 130.712359 
L 151.338647 130.673567 
L 152.019774 130.784388 
L 152.700923 131.794627 
L 153.382124 131.054238 
L 154.063243 131.706333 
L 154.74438 132.540001 
L 155.425471 133.153681 
L 156.106671 132.082727 
L 156.78776 133.709997 
L 157.468948 133.72153 
L 158.831213 132.985417 
L 159.51232 133.145372 
L 160.193505 133.570198 
L 160.874604 133.299379 
L 162.236891 134.413397 
L 162.918044 135.111828 
L 163.599172 134.232754 
L 164.280332 134.238742 
L 164.961459 133.569028 
L 165.642598 133.104222 
L 166.323728 132.86974 
L 167.004878 133.315962 
L 167.686019 133.217073 
L 168.367166 132.810858 
L 169.729459 133.859031 
L 171.091713 134.548366 
L 171.77286 135.629357 
L 173.135133 135.208441 
L 173.81629 134.335199 
L 174.497415 134.27953 
L 175.17855 134.02572 
L 175.859688 133.484192 
L 176.540856 133.742188 
L 177.221959 134.282712 
L 177.903127 134.274514 
L 178.584256 133.727619 
L 179.265385 133.710859 
L 179.946547 133.176142 
L 180.627662 132.847471 
L 181.308817 132.286453 
L 181.989959 132.732536 
L 182.671093 132.738151 
L 184.033369 133.148834 
L 184.714524 133.349139 
L 185.39564 133.390085 
L 186.076784 133.98931 
L 186.757926 133.74257 
L 188.120211 134.682841 
L 188.801352 134.175197 
L 189.482493 134.045263 
L 190.163631 134.293185 
L 190.844759 134.043394 
L 191.525914 133.490997 
L 192.207052 134.062184 
L 194.250453 133.39421 
L 194.931604 133.637933 
L 195.612746 133.335343 
L 196.293874 133.498242 
L 196.975018 133.19074 
L 197.656158 132.106343 
L 198.33729 131.930965 
L 200.380715 132.089279 
L 201.061859 133.351388 
L 201.742987 133.77232 
L 202.424133 133.928934 
L 203.105273 133.723045 
L 203.786411 133.900707 
L 204.467544 133.759015 
L 205.148683 133.365953 
L 205.82983 133.428905 
L 206.510966 133.315022 
L 207.192112 133.652889 
L 208.554385 133.829408 
L 209.916657 133.647821 
L 210.5978 132.833513 
L 211.96008 132.095669 
L 212.641225 132.307518 
L 213.322355 132.351877 
L 214.003498 132.716386 
L 215.365773 133.96684 
L 216.046915 133.647216 
L 217.409193 134.070638 
L 218.771468 133.416016 
L 219.452608 133.228225 
L 220.133752 132.637147 
L 220.814887 132.465578 
L 221.496026 132.8741 
L 222.177166 132.636796 
L 222.858306 131.944627 
L 223.539452 132.330619 
L 224.22059 132.556009 
L 224.901723 131.915229 
L 225.582863 131.63418 
L 226.264 132.458052 
L 227.626285 132.534894 
L 228.307424 132.867158 
L 228.98856 133.432895 
L 229.6697 133.19232 
L 230.350841 133.104289 
L 231.031978 133.161401 
L 231.713117 133.337899 
L 232.394258 132.992468 
L 233.075395 133.039767 
L 233.756535 132.590799 
L 234.437675 132.395893 
L 235.11881 132.054671 
L 235.799952 132.450063 
L 236.481091 132.382961 
L 238.524506 131.821152 
L 239.205645 131.64716 
L 239.886789 131.348244 
L 240.567924 131.806102 
L 241.249065 131.997633 
L 241.930203 131.790862 
L 242.611345 131.851449 
L 243.292481 132.203518 
L 244.654759 132.09862 
L 245.335898 132.520762 
L 248.741593 132.247593 
L 249.422736 131.796949 
L 250.103872 131.585246 
L 252.82843 131.871723 
L 253.50957 132.250672 
L 254.190706 132.068309 
L 254.871847 131.567957 
L 255.552987 131.388262 
L 256.234125 131.020765 
L 256.915264 130.922556 
L 258.277543 131.437177 
L 258.958682 131.173144 
L 259.639821 131.707942 
L 261.0021 130.646668 
L 261.683238 130.463409 
L 262.364377 130.85485 
L 263.045517 130.735686 
L 265.088933 131.42789 
L 265.770074 131.06593 
L 266.45121 131.055762 
L 267.132352 131.231296 
L 267.81349 131.142713 
L 268.494628 130.785982 
L 269.175769 130.836433 
L 269.856907 130.570493 
L 270.538045 130.146186 
L 271.219185 129.915783 
L 273.262603 129.953287 
L 274.62488 130.342239 
L 275.306019 130.383826 
L 276.668298 129.592048 
L 277.349437 129.445361 
L 278.711715 128.776092 
L 280.073994 128.915018 
L 280.755132 128.797343 
L 281.436271 129.052091 
L 282.11741 129.165558 
L 282.798549 129.150434 
L 284.160828 128.791307 
L 284.841967 128.546774 
L 285.523105 128.019678 
L 286.204245 127.870532 
L 286.885385 127.982814 
L 287.566523 127.805326 
L 288.247662 127.285526 
L 288.928801 127.53318 
L 289.60994 126.949254 
L 290.29108 126.570427 
L 290.972218 126.019252 
L 291.653357 126.027473 
L 292.334496 125.677772 
L 294.377914 126.047039 
L 295.740192 125.44188 
L 296.421331 125.224888 
L 297.102471 124.535223 
L 297.783609 124.104193 
L 299.145887 123.997929 
L 299.827026 123.694804 
L 300.508166 123.662872 
L 301.189304 123.822239 
L 304.595 123.710403 
L 305.957278 123.386312 
L 306.638417 123.343576 
L 307.319556 123.184048 
L 308.000696 122.610498 
L 308.681834 122.521176 
L 309.362974 122.080552 
L 310.044112 121.860477 
L 310.725252 121.38461 
L 311.40639 121.304007 
L 312.08753 121.021057 
L 312.768669 120.989327 
L 315.493225 119.944291 
L 320.261199 117.421987 
L 323.666894 116.042534 
L 324.348033 116.004539 
L 325.029172 115.627724 
L 325.710311 115.419108 
L 328.434867 113.634808 
L 329.116006 113.363065 
L 329.797146 113.26441 
L 330.478285 112.914939 
L 331.840563 112.532764 
L 333.202841 111.52122 
L 333.88398 111.357363 
L 335.927397 110.532908 
L 336.608536 110.307022 
L 337.970814 109.507671 
L 340.014232 108.722219 
L 340.695371 108.535843 
L 342.057649 107.910368 
L 342.738788 107.711886 
L 343.419927 107.309375 
L 344.782205 106.805547 
L 345.463344 106.226206 
L 348.1879 105.136813 
L 348.86904 105.048321 
L 352.955874 102.958039 
L 354.999291 102.15803 
L 355.68043 101.839574 
L 357.042708 100.988214 
L 358.404987 100.343001 
L 359.086126 100.283819 
L 360.448404 99.727788 
L 367.940933 96.033104 
L 368.622072 95.594718 
L 369.984351 95.112939 
L 371.346629 94.569488 
L 372.027768 94.290523 
L 372.708907 93.764722 
L 375.433463 92.365503 
L 376.795741 91.798195 
L 380.882576 89.875044 
L 382.244854 89.282352 
L 383.607132 88.565273 
L 384.288271 88.454492 
L 385.650549 87.761401 
L 387.012827 87.281935 
L 388.375105 86.421225 
L 389.056244 86.169056 
L 391.099662 84.911297 
L 397.229913 82.223475 
L 397.911052 81.765146 
L 399.27333 81.065649 
L 401.316748 80.005627 
L 403.360165 78.96257 
L 408.809277 76.372065 
L 408.809277 76.372065 
" style="fill:none;stroke:#4c72b0;stroke-linecap:round;stroke-width:1.5;"/>
   </g>
   <g id="line2d_13">
    <path clip-path="url(#p0195180eb3)" d="M 71.64496 175.927573 
L 73.007198 178.184313 
L 73.68876 178.03477 
L 74.369628 175.176159 
L 75.050423 175.034936 
L 75.731706 175.083522 
L 76.413163 173.992979 
L 77.094498 174.813303 
L 77.775434 176.649482 
L 79.137364 174.13841 
L 79.818536 174.902642 
L 80.4997 174.939759 
L 81.181286 175.120372 
L 81.862285 175.844315 
L 82.543131 176.000684 
L 83.22422 176.421983 
L 83.90591 176.335232 
L 84.586593 175.326227 
L 85.267935 175.1406 
L 85.948995 177.440582 
L 86.63011 176.663713 
L 87.311584 175.582322 
L 88.673831 174.887897 
L 89.354625 170.98538 
L 90.035748 170.655266 
L 90.716896 169.463277 
L 91.398305 169.966632 
L 92.079162 171.018205 
L 92.760721 174.998913 
L 93.441672 175.989916 
L 94.122729 179.25045 
L 94.804073 180.067787 
L 95.484939 178.753677 
L 96.166429 176.377534 
L 96.847334 176.405616 
L 97.528705 175.766378 
L 98.209806 175.330637 
L 98.890783 175.780959 
L 99.571768 177.594873 
L 100.253272 178.184085 
L 100.934199 178.422521 
L 101.615447 178.38951 
L 102.296337 176.83369 
L 102.977708 173.887823 
L 103.658885 173.038281 
L 104.33995 172.62974 
L 105.020968 171.678797 
L 105.702334 172.130484 
L 106.383411 173.806691 
L 107.064581 174.132849 
L 107.745552 138.659211 
L 109.107961 138.713778 
L 110.470152 138.50664 
L 111.151367 173.76233 
L 111.832465 173.174875 
L 112.513718 173.083416 
L 113.194831 173.875851 
L 113.876054 174.476426 
L 114.557098 174.426337 
L 115.238193 175.269599 
L 116.600615 178.290802 
L 117.281608 178.284311 
L 117.962708 176.127956 
L 118.643854 176.298963 
L 119.324981 174.644332 
L 120.006242 173.477035 
L 120.687345 173.554952 
L 121.368433 174.012538 
L 122.049633 173.844199 
L 122.730856 173.863133 
L 123.411815 173.612979 
L 124.093013 172.80147 
L 124.774152 173.128875 
L 125.455319 171.671805 
L 126.136411 171.669831 
L 126.817679 170.178382 
L 127.498828 171.261679 
L 128.179922 171.331871 
L 128.861012 171.645685 
L 129.542141 171.403392 
L 130.223343 172.971166 
L 130.904484 172.318109 
L 131.585591 172.723101 
L 132.266683 173.360627 
L 132.947916 173.636928 
L 133.628999 174.586284 
L 134.31022 174.130844 
L 134.991286 173.413816 
L 136.353597 175.981243 
L 137.034662 176.228582 
L 138.396979 170.210467 
L 139.078149 167.729007 
L 140.440405 165.757479 
L 141.12162 163.479959 
L 141.802698 163.295609 
L 142.483802 163.422723 
L 143.164972 162.464296 
L 143.846128 162.516334 
L 144.527298 164.960462 
L 145.208399 165.568133 
L 145.889548 165.893472 
L 146.570651 163.137001 
L 147.251807 162.292305 
L 147.933009 163.204945 
L 149.295221 162.712161 
L 149.976377 165.114233 
L 150.657501 166.274976 
L 151.338647 165.795742 
L 152.019774 167.304489 
L 153.382124 169.683625 
L 154.063243 169.112773 
L 154.74438 169.567419 
L 155.425471 168.059401 
L 157.468948 166.499643 
L 158.150081 166.307813 
L 158.831213 166.842511 
L 159.51232 166.330608 
L 160.193505 166.1389 
L 160.874604 166.409966 
L 161.555768 165.040575 
L 163.599172 166.285643 
L 164.280332 166.559307 
L 164.961459 168.023473 
L 165.642598 167.444471 
L 166.323728 168.129774 
L 167.004878 168.536597 
L 167.686019 168.574853 
L 168.367166 169.319781 
L 169.048279 169.048982 
L 169.729459 167.509801 
L 170.410559 166.674094 
L 171.091713 167.126706 
L 171.77286 166.934061 
L 172.453978 168.229976 
L 173.81629 171.22728 
L 174.497415 170.680649 
L 175.859688 170.275442 
L 177.221959 169.544221 
L 177.903127 169.381779 
L 178.584256 167.674345 
L 179.946547 165.405282 
L 180.627662 164.345805 
L 181.308817 163.727768 
L 181.989959 164.59278 
L 182.671093 164.765058 
L 183.352221 164.817678 
L 184.033369 165.019539 
L 184.714524 163.482707 
L 185.39564 162.599695 
L 186.076784 162.393674 
L 186.757926 161.446441 
L 187.439063 161.595044 
L 188.120211 162.268227 
L 188.801352 162.596542 
L 189.482493 162.429148 
L 190.163631 163.500677 
L 190.844759 163.35504 
L 191.525914 163.352944 
L 192.207052 163.129086 
L 193.569319 162.069017 
L 194.250453 161.21132 
L 194.931604 162.110632 
L 195.612746 161.873435 
L 197.656158 162.404671 
L 198.33729 161.36691 
L 199.018445 161.18101 
L 200.380715 159.902909 
L 201.061859 159.945418 
L 201.742987 159.551574 
L 202.424133 159.56312 
L 203.786411 159.382418 
L 204.467544 159.02421 
L 205.148683 158.875661 
L 205.82983 158.849698 
L 206.510966 158.706906 
L 207.192112 158.322071 
L 207.873238 158.176662 
L 208.554385 158.165272 
L 209.235526 157.808892 
L 209.916657 157.705748 
L 210.5978 157.431285 
L 211.278938 157.679744 
L 211.96008 157.463157 
L 212.641225 157.42374 
L 213.322355 157.551259 
L 214.003498 157.486644 
L 214.684637 157.038749 
L 215.365773 156.950785 
L 216.046915 153.409928 
L 218.090336 145.112827 
L 218.771468 143.09503 
L 219.452608 142.57739 
L 220.133752 142.859437 
L 220.814887 143.73607 
L 221.496026 144.351181 
L 222.858306 145.285872 
L 224.22059 144.840402 
L 224.901723 144.343779 
L 225.582863 143.317929 
L 226.264 143.144679 
L 226.945142 142.795895 
L 227.626285 142.252699 
L 228.307424 142.263767 
L 228.98856 142.878196 
L 229.6697 140.195426 
L 231.713117 134.093456 
L 232.394258 132.295676 
L 233.075395 131.656231 
L 233.756535 131.382745 
L 234.437675 131.352639 
L 235.11881 130.939023 
L 235.799952 130.909109 
L 236.481091 131.190066 
L 237.16223 131.015802 
L 237.84337 130.658392 
L 238.524506 130.675925 
L 239.205645 130.445301 
L 239.886789 130.077641 
L 240.567924 129.447668 
L 241.249065 129.266064 
L 241.930203 128.688541 
L 242.611345 128.269987 
L 246.01704 127.580881 
L 246.698178 127.136045 
L 248.741593 126.304904 
L 260.32096 121.573406 
L 261.683238 120.857157 
L 265.770074 119.108518 
L 268.494628 117.790952 
L 269.856907 117.281274 
L 271.900324 116.306026 
L 275.987158 114.442385 
L 277.349437 113.586101 
L 280.073994 112.307204 
L 282.11741 111.505805 
L 285.523105 109.68107 
L 287.566523 108.461166 
L 288.928801 107.712289 
L 289.60994 107.263795 
L 290.29108 107.018763 
L 290.972218 106.624272 
L 292.334496 106.166525 
L 293.015635 106.126421 
L 293.696774 105.713255 
L 295.059053 105.292792 
L 295.740192 105.100902 
L 296.421331 104.793143 
L 297.102471 104.779916 
L 297.783609 104.432114 
L 302.551583 103.022189 
L 308.000696 100.91704 
L 311.40639 99.058622 
L 322.304616 94.084815 
L 325.029172 92.547761 
L 326.39145 91.965747 
L 329.116006 90.835104 
L 329.797146 90.378659 
L 331.840563 89.380347 
L 337.289675 86.645801 
L 339.333093 85.73867 
L 340.014232 85.605726 
L 351.593596 81.330953 
L 364.535238 75.080564 
L 365.216377 74.891532 
L 369.303212 73.066053 
L 370.66549 72.465831 
L 375.433463 70.193145 
L 378.839158 68.8149 
L 382.244854 67.137129 
L 384.288271 66.206792 
L 390.418523 63.484987 
L 393.824218 61.811485 
L 397.911052 59.948877 
L 398.592191 59.605945 
L 399.954469 59.094249 
L 403.360165 57.940051 
L 408.809277 55.126915 
L 408.809277 55.126915 
" style="fill:none;stroke:#dd8452;stroke-linecap:round;stroke-width:1.5;"/>
   </g>
   <g id="line2d_14">
    <path clip-path="url(#p0195180eb3)" d="M 71.64496 209.866388 
L 72.326138 210.685996 
L 73.007198 215.39429 
L 73.68876 216.492333 
L 74.369628 219.081824 
L 75.050423 218.060809 
L 75.731706 215.732332 
L 76.413163 214.142234 
L 77.094498 213.268538 
L 77.775434 211.444412 
L 78.456487 211.016624 
L 79.137364 211.210077 
L 79.818536 210.623189 
L 80.4997 201.021711 
L 81.181286 201.118449 
L 81.862285 200.823174 
L 82.543131 200.28837 
L 83.22422 199.522781 
L 83.90591 207.977005 
L 84.586593 208.930107 
L 85.267935 209.311027 
L 86.63011 212.541691 
L 87.311584 211.290501 
L 87.992529 211.384697 
L 88.673831 209.318247 
L 89.354625 206.556306 
L 90.035748 204.840536 
L 91.398305 202.974533 
L 92.079162 203.526404 
L 92.760721 205.331142 
L 93.441672 206.60901 
L 94.122729 206.683636 
L 94.804073 207.081774 
L 95.484939 207.659216 
L 96.166429 206.881244 
L 96.847334 206.998649 
L 97.528705 207.809516 
L 98.209806 207.429771 
L 98.890783 205.494241 
L 99.571768 206.036768 
L 100.253272 205.272681 
L 101.615447 205.290616 
L 102.296337 206.758518 
L 102.977708 205.182751 
L 103.658885 204.243017 
L 104.33995 203.553204 
L 105.020968 202.350692 
L 105.702334 201.969158 
L 106.383411 202.500562 
L 107.064581 202.775021 
L 107.745552 202.273379 
L 108.426676 203.524376 
L 109.107961 203.427821 
L 110.470152 204.14174 
L 111.151367 202.040417 
L 111.832465 189.084762 
L 113.194831 189.003047 
L 113.876054 188.740515 
L 114.557098 189.355835 
L 115.238193 201.534466 
L 115.919299 201.130707 
L 116.600615 200.368512 
L 117.962708 200.1414 
L 118.643854 200.874771 
L 119.324981 201.216163 
L 120.006242 201.387526 
L 121.368433 203.885376 
L 122.049633 203.998807 
L 122.730856 203.663927 
L 123.411815 203.797324 
L 124.774152 203.732409 
L 125.455319 203.424751 
L 126.136411 203.705995 
L 126.817679 202.654545 
L 127.498828 202.383236 
L 128.179922 200.491299 
L 128.861012 199.732436 
L 129.542141 199.342169 
L 130.223343 199.648734 
L 130.904484 199.017993 
L 131.585591 199.898452 
L 132.947916 200.081203 
L 134.31022 200.621765 
L 134.991286 201.170984 
L 135.672465 201.255231 
L 137.034662 200.57806 
L 137.715887 199.768782 
L 138.396979 198.307056 
L 139.078149 196.426543 
L 139.759228 194.041465 
L 140.440405 192.501907 
L 141.12162 192.712272 
L 141.802698 193.275357 
L 142.483802 173.4501 
L 143.164972 173.849517 
L 143.846128 173.882351 
L 145.208399 173.541206 
L 145.889548 194.659119 
L 146.570651 195.119098 
L 147.251807 196.116286 
L 147.933009 195.426819 
L 148.614151 194.921311 
L 149.295221 193.762791 
L 149.976377 193.002876 
L 150.657501 192.902011 
L 151.338647 193.107139 
L 152.019774 167.576123 
L 152.700923 156.697867 
L 154.063243 156.56185 
L 154.74438 156.522992 
L 155.425471 164.840727 
L 156.106671 190.847889 
L 156.78776 191.051422 
L 157.468948 191.463567 
L 158.150081 191.461535 
L 158.831213 190.996188 
L 159.51232 191.825106 
L 160.193505 190.435929 
L 160.874604 190.347782 
L 161.555768 189.811846 
L 162.918044 188.993578 
L 163.599172 189.731098 
L 164.280332 188.996493 
L 164.961459 189.124432 
L 165.642598 188.791491 
L 166.323728 188.754483 
L 167.004878 188.334849 
L 167.686019 188.26614 
L 169.048279 187.145093 
L 169.729459 186.906398 
L 170.410559 186.970443 
L 171.091713 186.78561 
L 171.77286 186.223644 
L 172.453978 185.037477 
L 173.135133 185.026987 
L 173.81629 183.9347 
L 174.497415 182.442281 
L 175.17855 182.791827 
L 175.859688 183.788079 
L 176.540856 182.885225 
L 177.221959 182.887753 
L 177.903127 183.613159 
L 178.584256 182.473539 
L 179.265385 181.794886 
L 179.946547 181.759526 
L 181.308817 180.802188 
L 182.671093 180.667537 
L 183.352221 180.239461 
L 184.033369 179.957788 
L 186.076784 178.525948 
L 186.757926 178.474803 
L 187.439063 178.073885 
L 188.120211 178.114519 
L 189.482493 177.646171 
L 190.163631 176.977811 
L 190.844759 176.785337 
L 191.525914 176.278397 
L 192.888173 176.19255 
L 193.569319 176.407778 
L 195.612746 175.115856 
L 196.293874 174.42173 
L 196.975018 173.563414 
L 197.656158 173.264349 
L 198.33729 173.17168 
L 199.018445 172.478542 
L 199.699568 172.062862 
L 200.380715 172.355819 
L 201.742987 171.685374 
L 202.424133 172.271232 
L 203.105273 172.253576 
L 203.786411 171.518388 
L 204.467544 171.107037 
L 205.148683 170.8672 
L 205.82983 170.463713 
L 206.510966 166.498226 
L 207.192112 166.212588 
L 208.554385 166.393557 
L 209.235526 165.812418 
L 209.916657 169.207769 
L 211.278938 168.533716 
L 211.96008 167.738183 
L 212.641225 167.612427 
L 213.322355 166.972929 
L 214.003498 166.595297 
L 214.684637 165.84551 
L 215.365773 165.431451 
L 216.728053 160.39904 
L 218.090336 156.816367 
L 218.771468 155.202778 
L 220.133752 154.34808 
L 220.814887 153.738116 
L 222.177166 153.087571 
L 225.582863 151.788057 
L 227.626285 150.971778 
L 228.307424 150.745616 
L 228.98856 150.380647 
L 231.031978 139.56712 
L 232.394258 134.911836 
L 233.075395 133.517378 
L 233.756535 132.560061 
L 234.437675 132.877335 
L 235.11881 132.571991 
L 235.799952 131.913799 
L 236.481091 132.433085 
L 237.16223 132.700375 
L 237.84337 132.207282 
L 238.524506 131.990894 
L 239.205645 132.165659 
L 239.886789 131.644666 
L 240.567924 130.90135 
L 241.249065 130.760139 
L 241.930203 130.331983 
L 242.611345 128.095328 
L 243.973621 127.835968 
L 245.335898 127.282299 
L 246.01704 128.683586 
L 246.698178 128.258859 
L 247.379318 128.138615 
L 248.741593 127.324787 
L 250.78501 126.496794 
L 252.147291 126.018266 
L 252.82843 125.658705 
L 253.50957 124.761305 
L 256.234125 123.317538 
L 256.915264 123.384516 
L 260.32096 121.869989 
L 261.0021 121.259491 
L 261.683238 120.435422 
L 262.364377 120.110186 
L 263.045517 119.923429 
L 263.726655 119.429902 
L 264.407793 119.334465 
L 265.088933 119.509461 
L 265.770074 119.199405 
L 266.45121 118.682285 
L 267.132352 118.52757 
L 269.175769 117.424348 
L 269.856907 117.226483 
L 272.581464 115.933029 
L 273.262603 115.12444 
L 273.943741 113.994016 
L 274.62488 113.565336 
L 275.306019 113.268315 
L 275.987158 112.832097 
L 276.668298 112.23643 
L 277.349437 112.36138 
L 278.030576 112.154208 
L 279.392854 111.423391 
L 280.073994 111.743861 
L 280.755132 111.6753 
L 285.523105 109.335599 
L 286.204245 107.944078 
L 286.885385 107.344994 
L 287.566523 106.964091 
L 288.247662 106.190586 
L 288.928801 105.773035 
L 289.60994 106.079869 
L 290.29108 105.989259 
L 290.972218 105.718589 
L 291.653357 105.927725 
L 292.334496 105.676437 
L 293.015635 105.684312 
L 293.696774 105.194181 
L 295.740192 104.494075 
L 296.421331 104.242644 
L 297.102471 104.290671 
L 297.783609 104.019196 
L 298.464748 103.606861 
L 301.870444 102.8697 
L 303.913861 101.868619 
L 304.595 101.60111 
L 305.276139 101.055446 
L 305.957278 100.89386 
L 307.319556 100.22107 
L 308.000696 99.971833 
L 308.681834 99.927809 
L 312.768669 97.971737 
L 313.449808 97.517407 
L 314.130947 96.914239 
L 314.812086 96.552584 
L 315.493225 95.996185 
L 316.174364 94.978595 
L 318.217781 94.50241 
L 318.89892 94.359054 
L 319.580059 94.677243 
L 321.623477 93.566466 
L 322.304616 92.526903 
L 323.666894 91.877983 
L 325.029172 91.087855 
L 325.710311 91.553188 
L 327.753728 90.717709 
L 328.434867 90.511996 
L 329.116006 89.500214 
L 329.797146 89.106424 
L 330.478285 88.864514 
L 331.840563 88.190893 
L 332.521702 88.467907 
L 334.565119 87.636719 
L 335.246258 87.352761 
L 336.608536 86.285049 
L 340.014232 84.683665 
L 342.057649 84.151817 
L 343.419927 83.953867 
L 344.782205 83.128468 
L 346.144483 82.688455 
L 346.825622 82.325808 
L 347.506761 82.227965 
L 348.1879 81.992786 
L 348.86904 81.529052 
L 351.593596 80.514235 
L 352.955874 80.039814 
L 353.637013 79.595532 
L 354.318152 78.994334 
L 354.999291 78.658506 
L 355.68043 78.128688 
L 357.042708 77.549083 
L 357.723847 77.520966 
L 358.404987 76.898239 
L 359.086126 76.637702 
L 359.767265 76.159626 
L 361.810682 75.378911 
L 362.491821 74.594094 
L 364.535238 73.527896 
L 365.897516 73.526227 
L 366.578655 73.044674 
L 367.259794 72.879838 
L 367.940933 72.408461 
L 368.622072 71.75598 
L 369.303212 71.552868 
L 371.346629 70.080315 
L 372.027768 69.896789 
L 372.708907 69.579017 
L 373.390046 69.61214 
L 374.071185 69.307176 
L 374.752324 69.388994 
L 375.433463 69.140685 
L 376.114602 68.605579 
L 378.839158 67.599523 
L 379.520297 67.48803 
L 380.201437 67.261172 
L 380.882576 66.532636 
L 381.563715 66.130811 
L 382.925993 65.699432 
L 383.607132 65.270556 
L 384.288271 65.192131 
L 385.650549 64.717776 
L 387.012827 63.951579 
L 387.693966 63.779213 
L 389.056244 63.028007 
L 390.418523 62.673999 
L 393.824218 60.753907 
L 394.505357 60.331267 
L 397.911052 59.083137 
L 398.592191 58.592132 
L 400.635609 57.618673 
L 401.997887 57.369187 
L 404.041304 56.359737 
L 405.403582 55.281072 
L 406.76586 54.773795 
L 408.128138 54.029278 
L 408.809277 53.985659 
L 408.809277 53.985659 
" style="fill:none;stroke:#55a868;stroke-linecap:round;stroke-width:1.5;"/>
   </g>
   <g id="line2d_15">
    <path clip-path="url(#p0195180eb3)" d="M 71.64496 221.529197 
L 73.68876 222.545455 
L 74.369628 221.732206 
L 75.050423 221.527606 
L 75.731706 221.188079 
L 76.413163 220.44667 
L 77.094498 219.983675 
L 77.775434 220.181526 
L 80.4997 216.589685 
L 81.181286 216.243645 
L 81.862285 216.147755 
L 82.543131 215.775142 
L 83.22422 216.23659 
L 83.90591 216.868165 
L 84.586593 216.591611 
L 85.267935 216.60374 
L 85.948995 216.764589 
L 86.63011 216.468159 
L 89.354625 214.793768 
L 91.398305 214.118601 
L 92.079162 213.000068 
L 92.760721 212.867803 
L 94.122729 212.285328 
L 94.804073 211.390364 
L 95.484939 211.638487 
L 96.166429 211.256263 
L 96.847334 210.705371 
L 97.528705 210.5114 
L 99.571768 209.322761 
L 100.934199 208.603767 
L 101.615447 208.941269 
L 104.33995 207.641265 
L 105.020968 206.612112 
L 105.702334 206.548537 
L 107.745552 205.773787 
L 108.426676 206.015082 
L 109.107961 205.531939 
L 109.789115 204.910886 
L 110.470152 204.931965 
L 111.151367 202.949503 
L 111.832465 202.303411 
L 112.513718 201.879813 
L 113.194831 201.617426 
L 113.876054 200.887387 
L 114.557098 201.814673 
L 115.238193 201.695862 
L 116.600615 200.988592 
L 117.281608 201.081281 
L 117.962708 199.142079 
L 118.643854 198.517478 
L 119.324981 197.606999 
L 120.687345 197.077358 
L 121.368433 198.348335 
L 122.049633 198.575825 
L 122.730856 199.140779 
L 123.411815 199.161349 
L 124.093013 198.683422 
L 124.774152 198.354353 
L 126.136411 196.873341 
L 127.498828 196.180907 
L 128.179922 195.694406 
L 128.861012 195.476368 
L 129.542141 195.069656 
L 130.223343 194.506326 
L 130.904484 194.295204 
L 131.585591 193.151554 
L 132.266683 191.393068 
L 132.947916 191.252632 
L 133.628999 190.888722 
L 134.31022 189.336415 
L 134.991286 189.883646 
L 135.672465 190.983507 
L 137.034662 190.951656 
L 137.715887 190.676182 
L 138.396979 189.077112 
L 139.078149 186.835519 
L 140.440405 183.911169 
L 141.12162 184.437208 
L 141.802698 184.764247 
L 142.483802 183.837222 
L 143.164972 183.310294 
L 143.846128 183.917845 
L 144.527298 183.673528 
L 145.208399 182.506947 
L 145.889548 184.418691 
L 146.570651 185.509277 
L 147.251807 185.221991 
L 147.933009 183.067606 
L 148.614151 181.766823 
L 149.976377 178.671487 
L 150.657501 177.687415 
L 151.338647 178.392054 
L 152.019774 178.179091 
L 152.700923 178.632581 
L 154.063243 178.169439 
L 154.74438 177.281898 
L 156.106671 177.053787 
L 156.78776 176.777285 
L 157.468948 176.035199 
L 158.831213 175.90851 
L 160.193505 173.480554 
L 160.874604 173.479061 
L 161.555768 172.400451 
L 162.236891 172.241213 
L 162.918044 172.627989 
L 163.599172 172.885404 
L 164.961459 171.538272 
L 165.642598 170.503582 
L 166.323728 169.163427 
L 167.004878 168.829296 
L 167.686019 168.346105 
L 168.367166 167.581961 
L 169.729459 169.093827 
L 170.410559 168.781224 
L 171.77286 170.204941 
L 172.453978 168.765207 
L 173.135133 168.040552 
L 173.81629 167.775556 
L 174.497415 166.499205 
L 175.17855 165.858968 
L 175.859688 165.528878 
L 177.221959 162.845131 
L 177.903127 162.618397 
L 178.584256 161.820152 
L 179.265385 160.847667 
L 179.946547 160.422208 
L 181.308817 158.701193 
L 181.989959 157.984396 
L 182.671093 157.657314 
L 183.352221 156.770623 
L 184.033369 156.939889 
L 184.714524 156.528673 
L 185.39564 156.367416 
L 186.076784 155.803027 
L 186.757926 155.496171 
L 187.439063 155.438135 
L 188.801352 153.932593 
L 189.482493 153.614905 
L 190.163631 153.427401 
L 191.525914 152.234344 
L 192.207052 151.637511 
L 192.888173 150.419277 
L 194.250453 149.549975 
L 194.931604 149.141932 
L 195.612746 149.189458 
L 196.293874 149.040361 
L 196.975018 148.692011 
L 198.33729 146.765896 
L 199.018445 145.850337 
L 201.061859 144.468675 
L 202.424133 144.28396 
L 203.105273 144.005566 
L 204.467544 143.038259 
L 205.82983 141.990322 
L 206.510966 141.655211 
L 207.192112 141.049893 
L 207.873238 141.030332 
L 209.235526 140.640917 
L 210.5978 140.124047 
L 211.278938 139.559293 
L 214.003498 138.149565 
L 215.365773 137.620755 
L 216.046915 132.916264 
L 216.728053 129.266606 
L 218.090336 123.862997 
L 218.771468 121.584899 
L 219.452608 121.439055 
L 220.133752 121.145408 
L 220.814887 120.643362 
L 223.539452 119.354677 
L 224.901723 118.794472 
L 225.582863 118.304294 
L 226.945142 117.612495 
L 227.626285 117.230528 
L 228.98856 116.841656 
L 231.713117 113.396406 
L 232.394258 112.603275 
L 236.481091 110.481602 
L 237.84337 109.952514 
L 238.524506 109.628314 
L 239.205645 109.470177 
L 241.249065 108.379394 
L 242.611345 107.581381 
L 245.335898 106.298537 
L 260.32096 98.840777 
L 263.045517 97.564338 
L 265.770074 96.310633 
L 269.175769 94.606615 
L 271.900324 93.294227 
L 282.11741 88.200661 
L 282.798549 87.414587 
L 284.160828 86.70644 
L 285.523105 86.017107 
L 286.204245 86.062241 
L 288.247662 85.092182 
L 289.60994 84.428857 
L 291.653357 83.499294 
L 297.783609 80.686574 
L 299.827026 80.137098 
L 301.189304 79.620965 
L 308.681834 76.109037 
L 309.362974 75.891939 
L 316.855503 72.151296 
L 317.536642 71.899155 
L 318.89892 71.084511 
L 321.623477 69.863864 
L 322.985755 69.202388 
L 326.39145 67.537124 
L 329.797146 65.732386 
L 330.478285 65.288358 
L 333.88398 63.841041 
L 337.289675 61.996161 
L 338.651953 61.330919 
L 340.014232 60.866274 
L 352.955874 55.115525 
L 357.042708 52.970004 
L 357.723847 52.775358 
L 359.767265 51.696718 
L 360.448404 51.428043 
L 363.17296 49.885282 
L 365.216377 49.057009 
L 365.897516 48.852559 
L 370.66549 46.483211 
L 373.390046 45.309147 
L 382.244854 41.215919 
L 383.607132 40.677473 
L 384.96941 39.911881 
L 386.331688 39.338852 
L 397.229913 34.169095 
L 398.592191 33.480025 
L 400.635609 32.552982 
L 401.997887 32.017627 
L 406.76586 29.586884 
L 408.809277 28.654545 
L 408.809277 28.654545 
" style="fill:none;stroke:#c44e52;stroke-linecap:round;stroke-width:1.5;"/>
   </g>
   <g id="patch_3">
    <path d="M 68.920078 232.24 
L 68.920078 18.96 
" style="fill:none;stroke:#ffffff;stroke-linecap:square;stroke-linejoin:miter;stroke-width:1.25;"/>
   </g>
   <g id="patch_4">
    <path d="M 408.809277 232.24 
L 408.809277 18.96 
" style="fill:none;stroke:#ffffff;stroke-linecap:square;stroke-linejoin:miter;stroke-width:1.25;"/>
   </g>
   <g id="patch_5">
    <path d="M 68.920078 232.24 
L 408.809277 232.24 
" style="fill:none;stroke:#ffffff;stroke-linecap:square;stroke-linejoin:miter;stroke-width:1.25;"/>
   </g>
   <g id="patch_6">
    <path d="M 68.920078 18.96 
L 408.809277 18.96 
" style="fill:none;stroke:#ffffff;stroke-linecap:square;stroke-linejoin:miter;stroke-width:1.25;"/>
   </g>
   <g id="legend_1">
    <g id="patch_7">
     <path d="M 76.620078 101.14375 
L 170.059922 101.14375 
Q 172.259922 101.14375 172.259922 98.94375 
L 172.259922 26.66 
Q 172.259922 24.46 170.059922 24.46 
L 76.620078 24.46 
Q 74.420078 24.46 74.420078 26.66 
L 74.420078 98.94375 
Q 74.420078 101.14375 76.620078 101.14375 
z
" style="fill:#eaeaf2;opacity:0.8;stroke:#cccccc;stroke-linejoin:miter;"/>
    </g>
    <g id="line2d_16">
     <path d="M 83.220078 37.768281 
L 105.220078 37.768281 
" style="fill:none;stroke:#4c72b0;stroke-linecap:round;stroke-width:1.5;"/>
    </g>
    <g id="line2d_17"/>
    <g id="text_14">
     <!-- mtalg -->
     <defs>
      <path d="M 9.421875 75.984375 
L 18.40625 75.984375 
L 18.40625 0 
L 9.421875 0 
z
" id="DejaVuSans-108"/>
      <path d="M 45.40625 27.984375 
Q 45.40625 37.75 41.375 43.109375 
Q 37.359375 48.484375 30.078125 48.484375 
Q 22.859375 48.484375 18.828125 43.109375 
Q 14.796875 37.75 14.796875 27.984375 
Q 14.796875 18.265625 18.828125 12.890625 
Q 22.859375 7.515625 30.078125 7.515625 
Q 37.359375 7.515625 41.375 12.890625 
Q 45.40625 18.265625 45.40625 27.984375 
z
M 54.390625 6.78125 
Q 54.390625 -7.171875 48.1875 -13.984375 
Q 42 -20.796875 29.203125 -20.796875 
Q 24.46875 -20.796875 20.265625 -20.09375 
Q 16.0625 -19.390625 12.109375 -17.921875 
L 12.109375 -9.1875 
Q 16.0625 -11.328125 19.921875 -12.34375 
Q 23.78125 -13.375 27.78125 -13.375 
Q 36.625 -13.375 41.015625 -8.765625 
Q 45.40625 -4.15625 45.40625 5.171875 
L 45.40625 9.625 
Q 42.625 4.78125 38.28125 2.390625 
Q 33.9375 0 27.875 0 
Q 17.828125 0 11.671875 7.65625 
Q 5.515625 15.328125 5.515625 27.984375 
Q 5.515625 40.671875 11.671875 48.328125 
Q 17.828125 56 27.875 56 
Q 33.9375 56 38.28125 53.609375 
Q 42.625 51.21875 45.40625 46.390625 
L 45.40625 54.6875 
L 54.390625 54.6875 
z
" id="DejaVuSans-103"/>
     </defs>
     <g style="fill:#262626;" transform="translate(114.020078 41.618281)scale(0.11 -0.11)">
      <use xlink:href="#DejaVuSans-109"/>
      <use x="97.412109" xlink:href="#DejaVuSans-116"/>
      <use x="136.621094" xlink:href="#DejaVuSans-97"/>
      <use x="197.900391" xlink:href="#DejaVuSans-108"/>
      <use x="225.683594" xlink:href="#DejaVuSans-103"/>
     </g>
    </g>
    <g id="line2d_18">
     <path d="M 83.220078 53.914219 
L 105.220078 53.914219 
" style="fill:none;stroke:#dd8452;stroke-linecap:round;stroke-width:1.5;"/>
    </g>
    <g id="line2d_19"/>
    <g id="text_15">
     <!-- numexpr -->
     <g style="fill:#262626;" transform="translate(114.020078 57.764219)scale(0.11 -0.11)">
      <use xlink:href="#DejaVuSans-110"/>
      <use x="63.378906" xlink:href="#DejaVuSans-117"/>
      <use x="126.757812" xlink:href="#DejaVuSans-109"/>
      <use x="224.169922" xlink:href="#DejaVuSans-101"/>
      <use x="285.677734" xlink:href="#DejaVuSans-120"/>
      <use x="344.857422" xlink:href="#DejaVuSans-112"/>
      <use x="408.333984" xlink:href="#DejaVuSans-114"/>
     </g>
    </g>
    <g id="line2d_20">
     <path d="M 83.220078 70.060156 
L 105.220078 70.060156 
" style="fill:none;stroke:#55a868;stroke-linecap:round;stroke-width:1.5;"/>
    </g>
    <g id="line2d_21"/>
    <g id="text_16">
     <!-- numba -->
     <g style="fill:#262626;" transform="translate(114.020078 73.910156)scale(0.11 -0.11)">
      <use xlink:href="#DejaVuSans-110"/>
      <use x="63.378906" xlink:href="#DejaVuSans-117"/>
      <use x="126.757812" xlink:href="#DejaVuSans-109"/>
      <use x="224.169922" xlink:href="#DejaVuSans-98"/>
      <use x="287.646484" xlink:href="#DejaVuSans-97"/>
     </g>
    </g>
    <g id="line2d_22">
     <path d="M 83.220078 86.206094 
L 105.220078 86.206094 
" style="fill:none;stroke:#c44e52;stroke-linecap:round;stroke-width:1.5;"/>
    </g>
    <g id="line2d_23"/>
    <g id="text_17">
     <!-- numpy -->
     <g style="fill:#262626;" transform="translate(114.020078 90.056094)scale(0.11 -0.11)">
      <use xlink:href="#DejaVuSans-110"/>
      <use x="63.378906" xlink:href="#DejaVuSans-117"/>
      <use x="126.757812" xlink:href="#DejaVuSans-109"/>
      <use x="224.169922" xlink:href="#DejaVuSans-112"/>
      <use x="287.646484" xlink:href="#DejaVuSans-121"/>
     </g>
    </g>
   </g>
  </g>
 </g>
 <defs>
  <clipPath id="p0195180eb3">
   <rect height="213.28" width="339.889199" x="68.920078" y="18.96"/>
  </clipPath>
 </defs>
</svg>
