<?xml version="1.0" encoding="utf-8" standalone="no"?>
<!DOCTYPE svg PUBLIC "-//W3C//DTD SVG 1.1//EN"
  "http://www.w3.org/Graphics/SVG/1.1/DTD/svg11.dtd">
<!-- Created with matplotlib (https://matplotlib.org/) -->
<svg height="288pt" version="1.1" viewBox="0 0 432 288" width="432pt" xmlns="http://www.w3.org/2000/svg" xmlns:xlink="http://www.w3.org/1999/xlink">
 <defs>
  <style type="text/css">
*{stroke-linecap:butt;stroke-linejoin:round;}
  </style>
 </defs>
 <g id="figure_1">
  <g id="patch_1">
   <path d="M 0 288 
L 432 288 
L 432 0 
L 0 0 
z
" style="fill:#ffffff;"/>
  </g>
  <g id="axes_1">
   <g id="patch_2">
    <path d="M 68.920078 232.24 
L 408.809277 232.24 
L 408.809277 18.96 
L 68.920078 18.96 
z
" style="fill:#eaeaf2;"/>
   </g>
   <g id="matplotlib.axis_1">
    <g id="xtick_1">
     <g id="line2d_1">
      <path clip-path="url(#pb2aceb2d5f)" d="M 68.920078 232.24 
L 68.920078 18.96 
" style="fill:none;stroke:#ffffff;stroke-linecap:round;"/>
     </g>
     <g id="text_1">
      <!-- $\mathdefault{10^{5}}$ -->
      <defs>
       <path d="M 12.40625 8.296875 
L 28.515625 8.296875 
L 28.515625 63.921875 
L 10.984375 60.40625 
L 10.984375 69.390625 
L 28.421875 72.90625 
L 38.28125 72.90625 
L 38.28125 8.296875 
L 54.390625 8.296875 
L 54.390625 0 
L 12.40625 0 
z
" id="DejaVuSans-49"/>
       <path d="M 31.78125 66.40625 
Q 24.171875 66.40625 20.328125 58.90625 
Q 16.5 51.421875 16.5 36.375 
Q 16.5 21.390625 20.328125 13.890625 
Q 24.171875 6.390625 31.78125 6.390625 
Q 39.453125 6.390625 43.28125 13.890625 
Q 47.125 21.390625 47.125 36.375 
Q 47.125 51.421875 43.28125 58.90625 
Q 39.453125 66.40625 31.78125 66.40625 
z
M 31.78125 74.21875 
Q 44.046875 74.21875 50.515625 64.515625 
Q 56.984375 54.828125 56.984375 36.375 
Q 56.984375 17.96875 50.515625 8.265625 
Q 44.046875 -1.421875 31.78125 -1.421875 
Q 19.53125 -1.421875 13.0625 8.265625 
Q 6.59375 17.96875 6.59375 36.375 
Q 6.59375 54.828125 13.0625 64.515625 
Q 19.53125 74.21875 31.78125 74.21875 
z
" id="DejaVuSans-48"/>
       <path d="M 10.796875 72.90625 
L 49.515625 72.90625 
L 49.515625 64.59375 
L 19.828125 64.59375 
L 19.828125 46.734375 
Q 21.96875 47.46875 24.109375 47.828125 
Q 26.265625 48.1875 28.421875 48.1875 
Q 40.625 48.1875 47.75 41.5 
Q 54.890625 34.8125 54.890625 23.390625 
Q 54.890625 11.625 47.5625 5.09375 
Q 40.234375 -1.421875 26.90625 -1.421875 
Q 22.3125 -1.421875 17.546875 -0.640625 
Q 12.796875 0.140625 7.71875 1.703125 
L 7.71875 11.625 
Q 12.109375 9.234375 16.796875 8.0625 
Q 21.484375 6.890625 26.703125 6.890625 
Q 35.15625 6.890625 40.078125 11.328125 
Q 45.015625 15.765625 45.015625 23.390625 
Q 45.015625 31 40.078125 35.4375 
Q 35.15625 39.890625 26.703125 39.890625 
Q 22.75 39.890625 18.8125 39.015625 
Q 14.890625 38.140625 10.796875 36.28125 
z
" id="DejaVuSans-53"/>
      </defs>
      <g style="fill:#262626;" transform="translate(59.240078 252.598281)scale(0.11 -0.11)">
       <use transform="translate(0 0.684375)" xlink:href="#DejaVuSans-49"/>
       <use transform="translate(63.623047 0.684375)" xlink:href="#DejaVuSans-48"/>
       <use transform="translate(128.203125 38.965625)scale(0.7)" xlink:href="#DejaVuSans-53"/>
      </g>
     </g>
    </g>
    <g id="xtick_2">
     <g id="line2d_2">
      <path clip-path="url(#pb2aceb2d5f)" d="M 153.892378 232.24 
L 153.892378 18.96 
" style="fill:none;stroke:#ffffff;stroke-linecap:round;"/>
     </g>
     <g id="text_2">
      <!-- $\mathdefault{10^{6}}$ -->
      <defs>
       <path d="M 33.015625 40.375 
Q 26.375 40.375 22.484375 35.828125 
Q 18.609375 31.296875 18.609375 23.390625 
Q 18.609375 15.53125 22.484375 10.953125 
Q 26.375 6.390625 33.015625 6.390625 
Q 39.65625 6.390625 43.53125 10.953125 
Q 47.40625 15.53125 47.40625 23.390625 
Q 47.40625 31.296875 43.53125 35.828125 
Q 39.65625 40.375 33.015625 40.375 
z
M 52.59375 71.296875 
L 52.59375 62.3125 
Q 48.875 64.0625 45.09375 64.984375 
Q 41.3125 65.921875 37.59375 65.921875 
Q 27.828125 65.921875 22.671875 59.328125 
Q 17.53125 52.734375 16.796875 39.40625 
Q 19.671875 43.65625 24.015625 45.921875 
Q 28.375 48.1875 33.59375 48.1875 
Q 44.578125 48.1875 50.953125 41.515625 
Q 57.328125 34.859375 57.328125 23.390625 
Q 57.328125 12.15625 50.6875 5.359375 
Q 44.046875 -1.421875 33.015625 -1.421875 
Q 20.359375 -1.421875 13.671875 8.265625 
Q 6.984375 17.96875 6.984375 36.375 
Q 6.984375 53.65625 15.1875 63.9375 
Q 23.390625 74.21875 37.203125 74.21875 
Q 40.921875 74.21875 44.703125 73.484375 
Q 48.484375 72.75 52.59375 71.296875 
z
" id="DejaVuSans-54"/>
      </defs>
      <g style="fill:#262626;" transform="translate(144.212378 252.598281)scale(0.11 -0.11)">
       <use transform="translate(0 0.765625)" xlink:href="#DejaVuSans-49"/>
       <use transform="translate(63.623047 0.765625)" xlink:href="#DejaVuSans-48"/>
       <use transform="translate(128.203125 39.046875)scale(0.7)" xlink:href="#DejaVuSans-54"/>
      </g>
     </g>
    </g>
    <g id="xtick_3">
     <g id="line2d_3">
      <path clip-path="url(#pb2aceb2d5f)" d="M 238.864678 232.24 
L 238.864678 18.96 
" style="fill:none;stroke:#ffffff;stroke-linecap:round;"/>
     </g>
     <g id="text_3">
      <!-- $\mathdefault{10^{7}}$ -->
      <defs>
       <path d="M 8.203125 72.90625 
L 55.078125 72.90625 
L 55.078125 68.703125 
L 28.609375 0 
L 18.3125 0 
L 43.21875 64.59375 
L 8.203125 64.59375 
z
" id="DejaVuSans-55"/>
      </defs>
      <g style="fill:#262626;" transform="translate(229.184678 252.598281)scale(0.11 -0.11)">
       <use transform="translate(0 0.684375)" xlink:href="#DejaVuSans-49"/>
       <use transform="translate(63.623047 0.684375)" xlink:href="#DejaVuSans-48"/>
       <use transform="translate(128.203125 38.965625)scale(0.7)" xlink:href="#DejaVuSans-55"/>
      </g>
     </g>
    </g>
    <g id="xtick_4">
     <g id="line2d_4">
      <path clip-path="url(#pb2aceb2d5f)" d="M 323.836978 232.24 
L 323.836978 18.96 
" style="fill:none;stroke:#ffffff;stroke-linecap:round;"/>
     </g>
     <g id="text_4">
      <!-- $\mathdefault{10^{8}}$ -->
      <defs>
       <path d="M 31.78125 34.625 
Q 24.75 34.625 20.71875 30.859375 
Q 16.703125 27.09375 16.703125 20.515625 
Q 16.703125 13.921875 20.71875 10.15625 
Q 24.75 6.390625 31.78125 6.390625 
Q 38.8125 6.390625 42.859375 10.171875 
Q 46.921875 13.96875 46.921875 20.515625 
Q 46.921875 27.09375 42.890625 30.859375 
Q 38.875 34.625 31.78125 34.625 
z
M 21.921875 38.8125 
Q 15.578125 40.375 12.03125 44.71875 
Q 8.5 49.078125 8.5 55.328125 
Q 8.5 64.0625 14.71875 69.140625 
Q 20.953125 74.21875 31.78125 74.21875 
Q 42.671875 74.21875 48.875 69.140625 
Q 55.078125 64.0625 55.078125 55.328125 
Q 55.078125 49.078125 51.53125 44.71875 
Q 48 40.375 41.703125 38.8125 
Q 48.828125 37.15625 52.796875 32.3125 
Q 56.78125 27.484375 56.78125 20.515625 
Q 56.78125 9.90625 50.3125 4.234375 
Q 43.84375 -1.421875 31.78125 -1.421875 
Q 19.734375 -1.421875 13.25 4.234375 
Q 6.78125 9.90625 6.78125 20.515625 
Q 6.78125 27.484375 10.78125 32.3125 
Q 14.796875 37.15625 21.921875 38.8125 
z
M 18.3125 54.390625 
Q 18.3125 48.734375 21.84375 45.5625 
Q 25.390625 42.390625 31.78125 42.390625 
Q 38.140625 42.390625 41.71875 45.5625 
Q 45.3125 48.734375 45.3125 54.390625 
Q 45.3125 60.0625 41.71875 63.234375 
Q 38.140625 66.40625 31.78125 66.40625 
Q 25.390625 66.40625 21.84375 63.234375 
Q 18.3125 60.0625 18.3125 54.390625 
z
" id="DejaVuSans-56"/>
      </defs>
      <g style="fill:#262626;" transform="translate(314.156978 252.598281)scale(0.11 -0.11)">
       <use transform="translate(0 0.765625)" xlink:href="#DejaVuSans-49"/>
       <use transform="translate(63.623047 0.765625)" xlink:href="#DejaVuSans-48"/>
       <use transform="translate(128.203125 39.046875)scale(0.7)" xlink:href="#DejaVuSans-56"/>
      </g>
     </g>
    </g>
    <g id="xtick_5">
     <g id="line2d_5">
      <path clip-path="url(#pb2aceb2d5f)" d="M 408.809277 232.24 
L 408.809277 18.96 
" style="fill:none;stroke:#ffffff;stroke-linecap:round;"/>
     </g>
     <g id="text_5">
      <!-- $\mathdefault{10^{9}}$ -->
      <defs>
       <path d="M 10.984375 1.515625 
L 10.984375 10.5 
Q 14.703125 8.734375 18.5 7.8125 
Q 22.3125 6.890625 25.984375 6.890625 
Q 35.75 6.890625 40.890625 13.453125 
Q 46.046875 20.015625 46.78125 33.40625 
Q 43.953125 29.203125 39.59375 26.953125 
Q 35.25 24.703125 29.984375 24.703125 
Q 19.046875 24.703125 12.671875 31.3125 
Q 6.296875 37.9375 6.296875 49.421875 
Q 6.296875 60.640625 12.9375 67.421875 
Q 19.578125 74.21875 30.609375 74.21875 
Q 43.265625 74.21875 49.921875 64.515625 
Q 56.59375 54.828125 56.59375 36.375 
Q 56.59375 19.140625 48.40625 8.859375 
Q 40.234375 -1.421875 26.421875 -1.421875 
Q 22.703125 -1.421875 18.890625 -0.6875 
Q 15.09375 0.046875 10.984375 1.515625 
z
M 30.609375 32.421875 
Q 37.25 32.421875 41.125 36.953125 
Q 45.015625 41.5 45.015625 49.421875 
Q 45.015625 57.28125 41.125 61.84375 
Q 37.25 66.40625 30.609375 66.40625 
Q 23.96875 66.40625 20.09375 61.84375 
Q 16.21875 57.28125 16.21875 49.421875 
Q 16.21875 41.5 20.09375 36.953125 
Q 23.96875 32.421875 30.609375 32.421875 
z
" id="DejaVuSans-57"/>
      </defs>
      <g style="fill:#262626;" transform="translate(399.129277 252.598281)scale(0.11 -0.11)">
       <use transform="translate(0 0.765625)" xlink:href="#DejaVuSans-49"/>
       <use transform="translate(63.623047 0.765625)" xlink:href="#DejaVuSans-48"/>
       <use transform="translate(128.203125 39.046875)scale(0.7)" xlink:href="#DejaVuSans-57"/>
      </g>
     </g>
    </g>
    <g id="xtick_6"/>
    <g id="xtick_7"/>
    <g id="xtick_8"/>
    <g id="xtick_9"/>
    <g id="xtick_10"/>
    <g id="xtick_11"/>
    <g id="xtick_12"/>
    <g id="xtick_13"/>
    <g id="xtick_14"/>
    <g id="xtick_15"/>
    <g id="xtick_16"/>
    <g id="xtick_17"/>
    <g id="xtick_18"/>
    <g id="xtick_19"/>
    <g id="xtick_20"/>
    <g id="xtick_21"/>
    <g id="xtick_22"/>
    <g id="xtick_23"/>
    <g id="xtick_24"/>
    <g id="xtick_25"/>
    <g id="xtick_26"/>
    <g id="xtick_27"/>
    <g id="xtick_28"/>
    <g id="xtick_29"/>
    <g id="xtick_30"/>
    <g id="xtick_31"/>
    <g id="xtick_32"/>
    <g id="xtick_33"/>
    <g id="xtick_34"/>
    <g id="xtick_35"/>
    <g id="xtick_36"/>
    <g id="xtick_37"/>
    <g id="text_6">
     <!-- Number of operations (size of the array) -->
     <defs>
      <path d="M 9.8125 72.90625 
L 23.09375 72.90625 
L 55.421875 11.921875 
L 55.421875 72.90625 
L 64.984375 72.90625 
L 64.984375 0 
L 51.703125 0 
L 19.390625 60.984375 
L 19.390625 0 
L 9.8125 0 
z
" id="DejaVuSans-78"/>
      <path d="M 8.5 21.578125 
L 8.5 54.6875 
L 17.484375 54.6875 
L 17.484375 21.921875 
Q 17.484375 14.15625 20.5 10.265625 
Q 23.53125 6.390625 29.59375 6.390625 
Q 36.859375 6.390625 41.078125 11.03125 
Q 45.3125 15.671875 45.3125 23.6875 
L 45.3125 54.6875 
L 54.296875 54.6875 
L 54.296875 0 
L 45.3125 0 
L 45.3125 8.40625 
Q 42.046875 3.421875 37.71875 1 
Q 33.40625 -1.421875 27.6875 -1.421875 
Q 18.265625 -1.421875 13.375 4.4375 
Q 8.5 10.296875 8.5 21.578125 
z
M 31.109375 56 
z
" id="DejaVuSans-117"/>
      <path d="M 52 44.1875 
Q 55.375 50.25 60.0625 53.125 
Q 64.75 56 71.09375 56 
Q 79.640625 56 84.28125 50.015625 
Q 88.921875 44.046875 88.921875 33.015625 
L 88.921875 0 
L 79.890625 0 
L 79.890625 32.71875 
Q 79.890625 40.578125 77.09375 44.375 
Q 74.3125 48.1875 68.609375 48.1875 
Q 61.625 48.1875 57.5625 43.546875 
Q 53.515625 38.921875 53.515625 30.90625 
L 53.515625 0 
L 44.484375 0 
L 44.484375 32.71875 
Q 44.484375 40.625 41.703125 44.40625 
Q 38.921875 48.1875 33.109375 48.1875 
Q 26.21875 48.1875 22.15625 43.53125 
Q 18.109375 38.875 18.109375 30.90625 
L 18.109375 0 
L 9.078125 0 
L 9.078125 54.6875 
L 18.109375 54.6875 
L 18.109375 46.1875 
Q 21.1875 51.21875 25.484375 53.609375 
Q 29.78125 56 35.6875 56 
Q 41.65625 56 45.828125 52.96875 
Q 50 49.953125 52 44.1875 
z
" id="DejaVuSans-109"/>
      <path d="M 48.6875 27.296875 
Q 48.6875 37.203125 44.609375 42.84375 
Q 40.53125 48.484375 33.40625 48.484375 
Q 26.265625 48.484375 22.1875 42.84375 
Q 18.109375 37.203125 18.109375 27.296875 
Q 18.109375 17.390625 22.1875 11.75 
Q 26.265625 6.109375 33.40625 6.109375 
Q 40.53125 6.109375 44.609375 11.75 
Q 48.6875 17.390625 48.6875 27.296875 
z
M 18.109375 46.390625 
Q 20.953125 51.265625 25.265625 53.625 
Q 29.59375 56 35.59375 56 
Q 45.5625 56 51.78125 48.09375 
Q 58.015625 40.1875 58.015625 27.296875 
Q 58.015625 14.40625 51.78125 6.484375 
Q 45.5625 -1.421875 35.59375 -1.421875 
Q 29.59375 -1.421875 25.265625 0.953125 
Q 20.953125 3.328125 18.109375 8.203125 
L 18.109375 0 
L 9.078125 0 
L 9.078125 75.984375 
L 18.109375 75.984375 
z
" id="DejaVuSans-98"/>
      <path d="M 56.203125 29.59375 
L 56.203125 25.203125 
L 14.890625 25.203125 
Q 15.484375 15.921875 20.484375 11.0625 
Q 25.484375 6.203125 34.421875 6.203125 
Q 39.59375 6.203125 44.453125 7.46875 
Q 49.3125 8.734375 54.109375 11.28125 
L 54.109375 2.78125 
Q 49.265625 0.734375 44.1875 -0.34375 
Q 39.109375 -1.421875 33.890625 -1.421875 
Q 20.796875 -1.421875 13.15625 6.1875 
Q 5.515625 13.8125 5.515625 26.8125 
Q 5.515625 40.234375 12.765625 48.109375 
Q 20.015625 56 32.328125 56 
Q 43.359375 56 49.78125 48.890625 
Q 56.203125 41.796875 56.203125 29.59375 
z
M 47.21875 32.234375 
Q 47.125 39.59375 43.09375 43.984375 
Q 39.0625 48.390625 32.421875 48.390625 
Q 24.90625 48.390625 20.390625 44.140625 
Q 15.875 39.890625 15.1875 32.171875 
z
" id="DejaVuSans-101"/>
      <path d="M 41.109375 46.296875 
Q 39.59375 47.171875 37.8125 47.578125 
Q 36.03125 48 33.890625 48 
Q 26.265625 48 22.1875 43.046875 
Q 18.109375 38.09375 18.109375 28.8125 
L 18.109375 0 
L 9.078125 0 
L 9.078125 54.6875 
L 18.109375 54.6875 
L 18.109375 46.1875 
Q 20.953125 51.171875 25.484375 53.578125 
Q 30.03125 56 36.53125 56 
Q 37.453125 56 38.578125 55.875 
Q 39.703125 55.765625 41.0625 55.515625 
z
" id="DejaVuSans-114"/>
      <path id="DejaVuSans-32"/>
      <path d="M 30.609375 48.390625 
Q 23.390625 48.390625 19.1875 42.75 
Q 14.984375 37.109375 14.984375 27.296875 
Q 14.984375 17.484375 19.15625 11.84375 
Q 23.34375 6.203125 30.609375 6.203125 
Q 37.796875 6.203125 41.984375 11.859375 
Q 46.1875 17.53125 46.1875 27.296875 
Q 46.1875 37.015625 41.984375 42.703125 
Q 37.796875 48.390625 30.609375 48.390625 
z
M 30.609375 56 
Q 42.328125 56 49.015625 48.375 
Q 55.71875 40.765625 55.71875 27.296875 
Q 55.71875 13.875 49.015625 6.21875 
Q 42.328125 -1.421875 30.609375 -1.421875 
Q 18.84375 -1.421875 12.171875 6.21875 
Q 5.515625 13.875 5.515625 27.296875 
Q 5.515625 40.765625 12.171875 48.375 
Q 18.84375 56 30.609375 56 
z
" id="DejaVuSans-111"/>
      <path d="M 37.109375 75.984375 
L 37.109375 68.5 
L 28.515625 68.5 
Q 23.6875 68.5 21.796875 66.546875 
Q 19.921875 64.59375 19.921875 59.515625 
L 19.921875 54.6875 
L 34.71875 54.6875 
L 34.71875 47.703125 
L 19.921875 47.703125 
L 19.921875 0 
L 10.890625 0 
L 10.890625 47.703125 
L 2.296875 47.703125 
L 2.296875 54.6875 
L 10.890625 54.6875 
L 10.890625 58.5 
Q 10.890625 67.625 15.140625 71.796875 
Q 19.390625 75.984375 28.609375 75.984375 
z
" id="DejaVuSans-102"/>
      <path d="M 18.109375 8.203125 
L 18.109375 -20.796875 
L 9.078125 -20.796875 
L 9.078125 54.6875 
L 18.109375 54.6875 
L 18.109375 46.390625 
Q 20.953125 51.265625 25.265625 53.625 
Q 29.59375 56 35.59375 56 
Q 45.5625 56 51.78125 48.09375 
Q 58.015625 40.1875 58.015625 27.296875 
Q 58.015625 14.40625 51.78125 6.484375 
Q 45.5625 -1.421875 35.59375 -1.421875 
Q 29.59375 -1.421875 25.265625 0.953125 
Q 20.953125 3.328125 18.109375 8.203125 
z
M 48.6875 27.296875 
Q 48.6875 37.203125 44.609375 42.84375 
Q 40.53125 48.484375 33.40625 48.484375 
Q 26.265625 48.484375 22.1875 42.84375 
Q 18.109375 37.203125 18.109375 27.296875 
Q 18.109375 17.390625 22.1875 11.75 
Q 26.265625 6.109375 33.40625 6.109375 
Q 40.53125 6.109375 44.609375 11.75 
Q 48.6875 17.390625 48.6875 27.296875 
z
" id="DejaVuSans-112"/>
      <path d="M 34.28125 27.484375 
Q 23.390625 27.484375 19.1875 25 
Q 14.984375 22.515625 14.984375 16.5 
Q 14.984375 11.71875 18.140625 8.90625 
Q 21.296875 6.109375 26.703125 6.109375 
Q 34.1875 6.109375 38.703125 11.40625 
Q 43.21875 16.703125 43.21875 25.484375 
L 43.21875 27.484375 
z
M 52.203125 31.203125 
L 52.203125 0 
L 43.21875 0 
L 43.21875 8.296875 
Q 40.140625 3.328125 35.546875 0.953125 
Q 30.953125 -1.421875 24.3125 -1.421875 
Q 15.921875 -1.421875 10.953125 3.296875 
Q 6 8.015625 6 15.921875 
Q 6 25.140625 12.171875 29.828125 
Q 18.359375 34.515625 30.609375 34.515625 
L 43.21875 34.515625 
L 43.21875 35.40625 
Q 43.21875 41.609375 39.140625 45 
Q 35.0625 48.390625 27.6875 48.390625 
Q 23 48.390625 18.546875 47.265625 
Q 14.109375 46.140625 10.015625 43.890625 
L 10.015625 52.203125 
Q 14.9375 54.109375 19.578125 55.046875 
Q 24.21875 56 28.609375 56 
Q 40.484375 56 46.34375 49.84375 
Q 52.203125 43.703125 52.203125 31.203125 
z
" id="DejaVuSans-97"/>
      <path d="M 18.3125 70.21875 
L 18.3125 54.6875 
L 36.8125 54.6875 
L 36.8125 47.703125 
L 18.3125 47.703125 
L 18.3125 18.015625 
Q 18.3125 11.328125 20.140625 9.421875 
Q 21.96875 7.515625 27.59375 7.515625 
L 36.8125 7.515625 
L 36.8125 0 
L 27.59375 0 
Q 17.1875 0 13.234375 3.875 
Q 9.28125 7.765625 9.28125 18.015625 
L 9.28125 47.703125 
L 2.6875 47.703125 
L 2.6875 54.6875 
L 9.28125 54.6875 
L 9.28125 70.21875 
z
" id="DejaVuSans-116"/>
      <path d="M 9.421875 54.6875 
L 18.40625 54.6875 
L 18.40625 0 
L 9.421875 0 
z
M 9.421875 75.984375 
L 18.40625 75.984375 
L 18.40625 64.59375 
L 9.421875 64.59375 
z
" id="DejaVuSans-105"/>
      <path d="M 54.890625 33.015625 
L 54.890625 0 
L 45.90625 0 
L 45.90625 32.71875 
Q 45.90625 40.484375 42.875 44.328125 
Q 39.84375 48.1875 33.796875 48.1875 
Q 26.515625 48.1875 22.3125 43.546875 
Q 18.109375 38.921875 18.109375 30.90625 
L 18.109375 0 
L 9.078125 0 
L 9.078125 54.6875 
L 18.109375 54.6875 
L 18.109375 46.1875 
Q 21.34375 51.125 25.703125 53.5625 
Q 30.078125 56 35.796875 56 
Q 45.21875 56 50.046875 50.171875 
Q 54.890625 44.34375 54.890625 33.015625 
z
" id="DejaVuSans-110"/>
      <path d="M 44.28125 53.078125 
L 44.28125 44.578125 
Q 40.484375 46.53125 36.375 47.5 
Q 32.28125 48.484375 27.875 48.484375 
Q 21.1875 48.484375 17.84375 46.4375 
Q 14.5 44.390625 14.5 40.28125 
Q 14.5 37.15625 16.890625 35.375 
Q 19.28125 33.59375 26.515625 31.984375 
L 29.59375 31.296875 
Q 39.15625 29.25 43.1875 25.515625 
Q 47.21875 21.78125 47.21875 15.09375 
Q 47.21875 7.46875 41.1875 3.015625 
Q 35.15625 -1.421875 24.609375 -1.421875 
Q 20.21875 -1.421875 15.453125 -0.5625 
Q 10.6875 0.296875 5.421875 2 
L 5.421875 11.28125 
Q 10.40625 8.6875 15.234375 7.390625 
Q 20.0625 6.109375 24.8125 6.109375 
Q 31.15625 6.109375 34.5625 8.28125 
Q 37.984375 10.453125 37.984375 14.40625 
Q 37.984375 18.0625 35.515625 20.015625 
Q 33.0625 21.96875 24.703125 23.78125 
L 21.578125 24.515625 
Q 13.234375 26.265625 9.515625 29.90625 
Q 5.8125 33.546875 5.8125 39.890625 
Q 5.8125 47.609375 11.28125 51.796875 
Q 16.75 56 26.8125 56 
Q 31.78125 56 36.171875 55.265625 
Q 40.578125 54.546875 44.28125 53.078125 
z
" id="DejaVuSans-115"/>
      <path d="M 31 75.875 
Q 24.46875 64.65625 21.28125 53.65625 
Q 18.109375 42.671875 18.109375 31.390625 
Q 18.109375 20.125 21.3125 9.0625 
Q 24.515625 -2 31 -13.1875 
L 23.1875 -13.1875 
Q 15.875 -1.703125 12.234375 9.375 
Q 8.59375 20.453125 8.59375 31.390625 
Q 8.59375 42.28125 12.203125 53.3125 
Q 15.828125 64.359375 23.1875 75.875 
z
" id="DejaVuSans-40"/>
      <path d="M 5.515625 54.6875 
L 48.1875 54.6875 
L 48.1875 46.484375 
L 14.40625 7.171875 
L 48.1875 7.171875 
L 48.1875 0 
L 4.296875 0 
L 4.296875 8.203125 
L 38.09375 47.515625 
L 5.515625 47.515625 
z
" id="DejaVuSans-122"/>
      <path d="M 54.890625 33.015625 
L 54.890625 0 
L 45.90625 0 
L 45.90625 32.71875 
Q 45.90625 40.484375 42.875 44.328125 
Q 39.84375 48.1875 33.796875 48.1875 
Q 26.515625 48.1875 22.3125 43.546875 
Q 18.109375 38.921875 18.109375 30.90625 
L 18.109375 0 
L 9.078125 0 
L 9.078125 75.984375 
L 18.109375 75.984375 
L 18.109375 46.1875 
Q 21.34375 51.125 25.703125 53.5625 
Q 30.078125 56 35.796875 56 
Q 45.21875 56 50.046875 50.171875 
Q 54.890625 44.34375 54.890625 33.015625 
z
" id="DejaVuSans-104"/>
      <path d="M 32.171875 -5.078125 
Q 28.375 -14.84375 24.75 -17.8125 
Q 21.140625 -20.796875 15.09375 -20.796875 
L 7.90625 -20.796875 
L 7.90625 -13.28125 
L 13.1875 -13.28125 
Q 16.890625 -13.28125 18.9375 -11.515625 
Q 21 -9.765625 23.484375 -3.21875 
L 25.09375 0.875 
L 2.984375 54.6875 
L 12.5 54.6875 
L 29.59375 11.921875 
L 46.6875 54.6875 
L 56.203125 54.6875 
z
" id="DejaVuSans-121"/>
      <path d="M 8.015625 75.875 
L 15.828125 75.875 
Q 23.140625 64.359375 26.78125 53.3125 
Q 30.421875 42.28125 30.421875 31.390625 
Q 30.421875 20.453125 26.78125 9.375 
Q 23.140625 -1.703125 15.828125 -13.1875 
L 8.015625 -13.1875 
Q 14.5 -2 17.703125 9.0625 
Q 20.90625 20.125 20.90625 31.390625 
Q 20.90625 42.671875 17.703125 53.65625 
Q 14.5 64.65625 8.015625 75.875 
z
" id="DejaVuSans-41"/>
     </defs>
     <g style="fill:#262626;" transform="translate(117.820303 268.004063)scale(0.12 -0.12)">
      <use xlink:href="#DejaVuSans-78"/>
      <use x="74.804688" xlink:href="#DejaVuSans-117"/>
      <use x="138.183594" xlink:href="#DejaVuSans-109"/>
      <use x="235.595703" xlink:href="#DejaVuSans-98"/>
      <use x="299.072266" xlink:href="#DejaVuSans-101"/>
      <use x="360.595703" xlink:href="#DejaVuSans-114"/>
      <use x="401.708984" xlink:href="#DejaVuSans-32"/>
      <use x="433.496094" xlink:href="#DejaVuSans-111"/>
      <use x="494.677734" xlink:href="#DejaVuSans-102"/>
      <use x="529.882812" xlink:href="#DejaVuSans-32"/>
      <use x="561.669922" xlink:href="#DejaVuSans-111"/>
      <use x="622.851562" xlink:href="#DejaVuSans-112"/>
      <use x="686.328125" xlink:href="#DejaVuSans-101"/>
      <use x="747.851562" xlink:href="#DejaVuSans-114"/>
      <use x="788.964844" xlink:href="#DejaVuSans-97"/>
      <use x="850.244141" xlink:href="#DejaVuSans-116"/>
      <use x="889.453125" xlink:href="#DejaVuSans-105"/>
      <use x="917.236328" xlink:href="#DejaVuSans-111"/>
      <use x="978.417969" xlink:href="#DejaVuSans-110"/>
      <use x="1041.796875" xlink:href="#DejaVuSans-115"/>
      <use x="1093.896484" xlink:href="#DejaVuSans-32"/>
      <use x="1125.683594" xlink:href="#DejaVuSans-40"/>
      <use x="1164.697266" xlink:href="#DejaVuSans-115"/>
      <use x="1216.796875" xlink:href="#DejaVuSans-105"/>
      <use x="1244.580078" xlink:href="#DejaVuSans-122"/>
      <use x="1297.070312" xlink:href="#DejaVuSans-101"/>
      <use x="1358.59375" xlink:href="#DejaVuSans-32"/>
      <use x="1390.380859" xlink:href="#DejaVuSans-111"/>
      <use x="1451.5625" xlink:href="#DejaVuSans-102"/>
      <use x="1486.767578" xlink:href="#DejaVuSans-32"/>
      <use x="1518.554688" xlink:href="#DejaVuSans-116"/>
      <use x="1557.763672" xlink:href="#DejaVuSans-104"/>
      <use x="1621.142578" xlink:href="#DejaVuSans-101"/>
      <use x="1682.666016" xlink:href="#DejaVuSans-32"/>
      <use x="1714.453125" xlink:href="#DejaVuSans-97"/>
      <use x="1775.732422" xlink:href="#DejaVuSans-114"/>
      <use x="1816.830078" xlink:href="#DejaVuSans-114"/>
      <use x="1857.943359" xlink:href="#DejaVuSans-97"/>
      <use x="1919.222656" xlink:href="#DejaVuSans-121"/>
      <use x="1978.402344" xlink:href="#DejaVuSans-41"/>
     </g>
    </g>
   </g>
   <g id="matplotlib.axis_2">
    <g id="ytick_1">
     <g id="line2d_6">
      <path clip-path="url(#pb2aceb2d5f)" d="M 68.920078 232.24 
L 408.809277 232.24 
" style="fill:none;stroke:#ffffff;stroke-linecap:round;"/>
     </g>
     <g id="text_7">
      <!-- $\mathdefault{10^{-4}}$ -->
      <defs>
       <path d="M 10.59375 35.5 
L 73.1875 35.5 
L 73.1875 27.203125 
L 10.59375 27.203125 
z
" id="DejaVuSans-8722"/>
       <path d="M 37.796875 64.3125 
L 12.890625 25.390625 
L 37.796875 25.390625 
z
M 35.203125 72.90625 
L 47.609375 72.90625 
L 47.609375 25.390625 
L 58.015625 25.390625 
L 58.015625 17.1875 
L 47.609375 17.1875 
L 47.609375 0 
L 37.796875 0 
L 37.796875 17.1875 
L 4.890625 17.1875 
L 4.890625 26.703125 
z
" id="DejaVuSans-52"/>
      </defs>
      <g style="fill:#262626;" transform="translate(31.070078 236.419141)scale(0.11 -0.11)">
       <use transform="translate(0 0.684375)" xlink:href="#DejaVuSans-49"/>
       <use transform="translate(63.623047 0.684375)" xlink:href="#DejaVuSans-48"/>
       <use transform="translate(128.203125 38.965625)scale(0.7)" xlink:href="#DejaVuSans-8722"/>
       <use transform="translate(186.855469 38.965625)scale(0.7)" xlink:href="#DejaVuSans-52"/>
      </g>
     </g>
    </g>
    <g id="ytick_2">
     <g id="line2d_7">
      <path clip-path="url(#pb2aceb2d5f)" d="M 68.920078 196.693333 
L 408.809277 196.693333 
" style="fill:none;stroke:#ffffff;stroke-linecap:round;"/>
     </g>
     <g id="text_8">
      <!-- $\mathdefault{10^{-3}}$ -->
      <defs>
       <path d="M 40.578125 39.3125 
Q 47.65625 37.796875 51.625 33 
Q 55.609375 28.21875 55.609375 21.1875 
Q 55.609375 10.40625 48.1875 4.484375 
Q 40.765625 -1.421875 27.09375 -1.421875 
Q 22.515625 -1.421875 17.65625 -0.515625 
Q 12.796875 0.390625 7.625 2.203125 
L 7.625 11.71875 
Q 11.71875 9.328125 16.59375 8.109375 
Q 21.484375 6.890625 26.8125 6.890625 
Q 36.078125 6.890625 40.9375 10.546875 
Q 45.796875 14.203125 45.796875 21.1875 
Q 45.796875 27.640625 41.28125 31.265625 
Q 36.765625 34.90625 28.71875 34.90625 
L 20.21875 34.90625 
L 20.21875 43.015625 
L 29.109375 43.015625 
Q 36.375 43.015625 40.234375 45.921875 
Q 44.09375 48.828125 44.09375 54.296875 
Q 44.09375 59.90625 40.109375 62.90625 
Q 36.140625 65.921875 28.71875 65.921875 
Q 24.65625 65.921875 20.015625 65.03125 
Q 15.375 64.15625 9.8125 62.3125 
L 9.8125 71.09375 
Q 15.4375 72.65625 20.34375 73.4375 
Q 25.25 74.21875 29.59375 74.21875 
Q 40.828125 74.21875 47.359375 69.109375 
Q 53.90625 64.015625 53.90625 55.328125 
Q 53.90625 49.265625 50.4375 45.09375 
Q 46.96875 40.921875 40.578125 39.3125 
z
" id="DejaVuSans-51"/>
      </defs>
      <g style="fill:#262626;" transform="translate(31.070078 200.872474)scale(0.11 -0.11)">
       <use transform="translate(0 0.765625)" xlink:href="#DejaVuSans-49"/>
       <use transform="translate(63.623047 0.765625)" xlink:href="#DejaVuSans-48"/>
       <use transform="translate(128.203125 39.046875)scale(0.7)" xlink:href="#DejaVuSans-8722"/>
       <use transform="translate(186.855469 39.046875)scale(0.7)" xlink:href="#DejaVuSans-51"/>
      </g>
     </g>
    </g>
    <g id="ytick_3">
     <g id="line2d_8">
      <path clip-path="url(#pb2aceb2d5f)" d="M 68.920078 161.146667 
L 408.809277 161.146667 
" style="fill:none;stroke:#ffffff;stroke-linecap:round;"/>
     </g>
     <g id="text_9">
      <!-- $\mathdefault{10^{-2}}$ -->
      <defs>
       <path d="M 19.1875 8.296875 
L 53.609375 8.296875 
L 53.609375 0 
L 7.328125 0 
L 7.328125 8.296875 
Q 12.9375 14.109375 22.625 23.890625 
Q 32.328125 33.6875 34.8125 36.53125 
Q 39.546875 41.84375 41.421875 45.53125 
Q 43.3125 49.21875 43.3125 52.78125 
Q 43.3125 58.59375 39.234375 62.25 
Q 35.15625 65.921875 28.609375 65.921875 
Q 23.96875 65.921875 18.8125 64.3125 
Q 13.671875 62.703125 7.8125 59.421875 
L 7.8125 69.390625 
Q 13.765625 71.78125 18.9375 73 
Q 24.125 74.21875 28.421875 74.21875 
Q 39.75 74.21875 46.484375 68.546875 
Q 53.21875 62.890625 53.21875 53.421875 
Q 53.21875 48.921875 51.53125 44.890625 
Q 49.859375 40.875 45.40625 35.40625 
Q 44.1875 33.984375 37.640625 27.21875 
Q 31.109375 20.453125 19.1875 8.296875 
z
" id="DejaVuSans-50"/>
      </defs>
      <g style="fill:#262626;" transform="translate(31.070078 165.325807)scale(0.11 -0.11)">
       <use transform="translate(0 0.765625)" xlink:href="#DejaVuSans-49"/>
       <use transform="translate(63.623047 0.765625)" xlink:href="#DejaVuSans-48"/>
       <use transform="translate(128.203125 39.046875)scale(0.7)" xlink:href="#DejaVuSans-8722"/>
       <use transform="translate(186.855469 39.046875)scale(0.7)" xlink:href="#DejaVuSans-50"/>
      </g>
     </g>
    </g>
    <g id="ytick_4">
     <g id="line2d_9">
      <path clip-path="url(#pb2aceb2d5f)" d="M 68.920078 125.6 
L 408.809277 125.6 
" style="fill:none;stroke:#ffffff;stroke-linecap:round;"/>
     </g>
     <g id="text_10">
      <!-- $\mathdefault{10^{-1}}$ -->
      <g style="fill:#262626;" transform="translate(31.070078 129.779141)scale(0.11 -0.11)">
       <use transform="translate(0 0.684375)" xlink:href="#DejaVuSans-49"/>
       <use transform="translate(63.623047 0.684375)" xlink:href="#DejaVuSans-48"/>
       <use transform="translate(128.203125 38.965625)scale(0.7)" xlink:href="#DejaVuSans-8722"/>
       <use transform="translate(186.855469 38.965625)scale(0.7)" xlink:href="#DejaVuSans-49"/>
      </g>
     </g>
    </g>
    <g id="ytick_5">
     <g id="line2d_10">
      <path clip-path="url(#pb2aceb2d5f)" d="M 68.920078 90.053333 
L 408.809277 90.053333 
" style="fill:none;stroke:#ffffff;stroke-linecap:round;"/>
     </g>
     <g id="text_11">
      <!-- $\mathdefault{10^{0}}$ -->
      <g style="fill:#262626;" transform="translate(37.560078 94.232474)scale(0.11 -0.11)">
       <use transform="translate(0 0.765625)" xlink:href="#DejaVuSans-49"/>
       <use transform="translate(63.623047 0.765625)" xlink:href="#DejaVuSans-48"/>
       <use transform="translate(128.203125 39.046875)scale(0.7)" xlink:href="#DejaVuSans-48"/>
      </g>
     </g>
    </g>
    <g id="ytick_6">
     <g id="line2d_11">
      <path clip-path="url(#pb2aceb2d5f)" d="M 68.920078 54.506667 
L 408.809277 54.506667 
" style="fill:none;stroke:#ffffff;stroke-linecap:round;"/>
     </g>
     <g id="text_12">
      <!-- $\mathdefault{10^{1}}$ -->
      <g style="fill:#262626;" transform="translate(37.560078 58.685807)scale(0.11 -0.11)">
       <use transform="translate(0 0.684375)" xlink:href="#DejaVuSans-49"/>
       <use transform="translate(63.623047 0.684375)" xlink:href="#DejaVuSans-48"/>
       <use transform="translate(128.203125 38.965625)scale(0.7)" xlink:href="#DejaVuSans-49"/>
      </g>
     </g>
    </g>
    <g id="ytick_7">
     <g id="line2d_12">
      <path clip-path="url(#pb2aceb2d5f)" d="M 68.920078 18.96 
L 408.809277 18.96 
" style="fill:none;stroke:#ffffff;stroke-linecap:round;"/>
     </g>
     <g id="text_13">
      <!-- $\mathdefault{10^{2}}$ -->
      <g style="fill:#262626;" transform="translate(37.560078 23.139141)scale(0.11 -0.11)">
       <use transform="translate(0 0.765625)" xlink:href="#DejaVuSans-49"/>
       <use transform="translate(63.623047 0.765625)" xlink:href="#DejaVuSans-48"/>
       <use transform="translate(128.203125 39.046875)scale(0.7)" xlink:href="#DejaVuSans-50"/>
      </g>
     </g>
    </g>
    <g id="ytick_8"/>
    <g id="ytick_9"/>
    <g id="ytick_10"/>
    <g id="ytick_11"/>
    <g id="ytick_12"/>
    <g id="ytick_13"/>
    <g id="ytick_14"/>
    <g id="ytick_15"/>
    <g id="ytick_16"/>
    <g id="ytick_17"/>
    <g id="ytick_18"/>
    <g id="ytick_19"/>
    <g id="ytick_20"/>
    <g id="ytick_21"/>
    <g id="ytick_22"/>
    <g id="ytick_23"/>
    <g id="ytick_24"/>
    <g id="ytick_25"/>
    <g id="ytick_26"/>
    <g id="ytick_27"/>
    <g id="ytick_28"/>
    <g id="ytick_29"/>
    <g id="ytick_30"/>
    <g id="ytick_31"/>
    <g id="ytick_32"/>
    <g id="ytick_33"/>
    <g id="ytick_34"/>
    <g id="ytick_35"/>
    <g id="ytick_36"/>
    <g id="ytick_37"/>
    <g id="ytick_38"/>
    <g id="ytick_39"/>
    <g id="ytick_40"/>
    <g id="ytick_41"/>
    <g id="ytick_42"/>
    <g id="ytick_43"/>
    <g id="ytick_44"/>
    <g id="ytick_45"/>
    <g id="ytick_46"/>
    <g id="ytick_47"/>
    <g id="ytick_48"/>
    <g id="ytick_49"/>
    <g id="ytick_50"/>
    <g id="ytick_51"/>
    <g id="ytick_52"/>
    <g id="ytick_53"/>
    <g id="ytick_54"/>
    <g id="ytick_55"/>
    <g id="text_14">
     <!-- Execution time [sec] -->
     <defs>
      <path d="M 9.8125 72.90625 
L 55.90625 72.90625 
L 55.90625 64.59375 
L 19.671875 64.59375 
L 19.671875 43.015625 
L 54.390625 43.015625 
L 54.390625 34.71875 
L 19.671875 34.71875 
L 19.671875 8.296875 
L 56.78125 8.296875 
L 56.78125 0 
L 9.8125 0 
z
" id="DejaVuSans-69"/>
      <path d="M 54.890625 54.6875 
L 35.109375 28.078125 
L 55.90625 0 
L 45.3125 0 
L 29.390625 21.484375 
L 13.484375 0 
L 2.875 0 
L 24.125 28.609375 
L 4.6875 54.6875 
L 15.28125 54.6875 
L 29.78125 35.203125 
L 44.28125 54.6875 
z
" id="DejaVuSans-120"/>
      <path d="M 48.78125 52.59375 
L 48.78125 44.1875 
Q 44.96875 46.296875 41.140625 47.34375 
Q 37.3125 48.390625 33.40625 48.390625 
Q 24.65625 48.390625 19.8125 42.84375 
Q 14.984375 37.3125 14.984375 27.296875 
Q 14.984375 17.28125 19.8125 11.734375 
Q 24.65625 6.203125 33.40625 6.203125 
Q 37.3125 6.203125 41.140625 7.25 
Q 44.96875 8.296875 48.78125 10.40625 
L 48.78125 2.09375 
Q 45.015625 0.34375 40.984375 -0.53125 
Q 36.96875 -1.421875 32.421875 -1.421875 
Q 20.0625 -1.421875 12.78125 6.34375 
Q 5.515625 14.109375 5.515625 27.296875 
Q 5.515625 40.671875 12.859375 48.328125 
Q 20.21875 56 33.015625 56 
Q 37.15625 56 41.109375 55.140625 
Q 45.0625 54.296875 48.78125 52.59375 
z
" id="DejaVuSans-99"/>
      <path d="M 8.59375 75.984375 
L 29.296875 75.984375 
L 29.296875 69 
L 17.578125 69 
L 17.578125 -6.203125 
L 29.296875 -6.203125 
L 29.296875 -13.1875 
L 8.59375 -13.1875 
z
" id="DejaVuSans-91"/>
      <path d="M 30.421875 75.984375 
L 30.421875 -13.1875 
L 9.71875 -13.1875 
L 9.71875 -6.203125 
L 21.390625 -6.203125 
L 21.390625 69 
L 9.71875 69 
L 9.71875 75.984375 
z
" id="DejaVuSans-93"/>
     </defs>
     <g style="fill:#262626;" transform="translate(24.574453 187.393438)rotate(-90)scale(0.12 -0.12)">
      <use xlink:href="#DejaVuSans-69"/>
      <use x="63.183594" xlink:href="#DejaVuSans-120"/>
      <use x="122.316406" xlink:href="#DejaVuSans-101"/>
      <use x="183.839844" xlink:href="#DejaVuSans-99"/>
      <use x="238.820312" xlink:href="#DejaVuSans-117"/>
      <use x="302.199219" xlink:href="#DejaVuSans-116"/>
      <use x="341.408203" xlink:href="#DejaVuSans-105"/>
      <use x="369.191406" xlink:href="#DejaVuSans-111"/>
      <use x="430.373047" xlink:href="#DejaVuSans-110"/>
      <use x="493.751953" xlink:href="#DejaVuSans-32"/>
      <use x="525.539062" xlink:href="#DejaVuSans-116"/>
      <use x="564.748047" xlink:href="#DejaVuSans-105"/>
      <use x="592.53125" xlink:href="#DejaVuSans-109"/>
      <use x="689.943359" xlink:href="#DejaVuSans-101"/>
      <use x="751.466797" xlink:href="#DejaVuSans-32"/>
      <use x="783.253906" xlink:href="#DejaVuSans-91"/>
      <use x="822.267578" xlink:href="#DejaVuSans-115"/>
      <use x="874.367188" xlink:href="#DejaVuSans-101"/>
      <use x="935.890625" xlink:href="#DejaVuSans-99"/>
      <use x="990.871094" xlink:href="#DejaVuSans-93"/>
     </g>
    </g>
   </g>
   <g id="line2d_13">
    <path clip-path="url(#pb2aceb2d5f)" d="M -1 164.323066 
L 1.454634 164.299227 
L 4.016613 164.458881 
L 6.578592 164.384846 
L 11.70255 163.928243 
L 21.950465 163.951704 
L 24.512444 164.222537 
L 32.198381 164.269833 
L 34.76036 164.460184 
L 39.884317 164.211496 
L 42.446296 164.289589 
L 45.008275 163.937012 
L 50.132233 163.707132 
L 52.694212 163.457743 
L 57.81817 163.245906 
L 60.380148 163.182721 
L 62.942127 163.277233 
L 65.504106 162.82177 
L 68.066085 162.606254 
L 70.628064 162.795936 
L 73.190043 162.60607 
L 80.87598 162.272555 
L 83.437958 161.999177 
L 88.561916 161.799492 
L 91.123895 161.967094 
L 96.247853 161.558661 
L 101.371811 161.402591 
L 109.057747 161.642684 
L 111.619726 161.389138 
L 119.305663 161.140316 
L 124.429621 160.479522 
L 129.553578 160.207874 
L 134.677536 159.884943 
L 137.239515 159.981712 
L 144.925452 159.703722 
L 147.487431 159.78011 
L 150.04941 159.975693 
L 155.173367 159.75194 
L 157.735346 159.587382 
L 160.297325 159.539715 
L 165.421283 159.122172 
L 173.10722 158.997856 
L 175.669198 158.92356 
L 178.231177 158.565853 
L 183.355135 158.471792 
L 185.917114 158.21726 
L 191.041072 158.006178 
L 196.16503 157.898197 
L 201.288987 157.542093 
L 203.850966 157.666612 
L 206.412945 157.1293 
L 208.974924 155.940221 
L 214.098882 153.932475 
L 216.660861 153.054124 
L 224.346797 149.93764 
L 226.908776 148.911705 
L 229.470755 147.703202 
L 232.032734 146.87937 
L 237.156692 145.79546 
L 244.842628 143.801555 
L 249.966586 142.262701 
L 252.528565 141.529347 
L 255.090544 140.914381 
L 260.214502 139.22295 
L 262.776481 138.101774 
L 270.462417 135.447663 
L 290.958248 129.813738 
L 293.520227 129.189823 
L 298.644185 127.484376 
L 303.768143 125.591992 
L 308.892101 123.850756 
L 311.45408 123.068385 
L 331.949911 115.181038 
L 339.635847 111.687871 
L 342.197826 110.253401 
L 349.883763 106.498732 
L 357.5697 103.069053 
L 362.693657 101.147019 
L 365.255636 100.278629 
L 367.817615 99.529486 
L 388.313446 92.013318 
L 393.437404 89.890771 
L 408.809277 84.230669 
L 408.809277 84.230669 
" style="fill:none;stroke:#4c72b0;stroke-linecap:round;stroke-width:3;"/>
   </g>
   <g id="line2d_14">
    <path clip-path="url(#pb2aceb2d5f)" d="M -1 244.282343 
L 1.454634 243.350512 
L 4.016613 241.995711 
L 6.578592 241.042965 
L 9.140571 239.945223 
L 14.264529 238.018105 
L 16.826507 236.840966 
L 29.636402 231.909058 
L 32.198381 230.588642 
L 37.322338 228.540941 
L 42.446296 226.733405 
L 45.008275 225.611779 
L 65.504106 217.617363 
L 70.628064 215.260208 
L 73.190043 213.642878 
L 78.314001 211.12769 
L 83.437958 209.083176 
L 85.999937 207.94138 
L 91.123895 206.077964 
L 93.685874 205.228566 
L 96.247853 204.206558 
L 98.809832 203.495929 
L 106.495768 200.74292 
L 116.743684 196.369321 
L 119.305663 195.075395 
L 124.429621 193.102373 
L 132.115557 189.654773 
L 134.677536 188.726384 
L 152.611388 181.374644 
L 155.173367 180.122401 
L 157.735346 179.222281 
L 165.421283 175.919455 
L 167.983262 174.552436 
L 178.231177 170.05171 
L 180.793156 169.053287 
L 183.355135 167.93026 
L 185.917114 166.363321 
L 188.479093 165.112464 
L 196.16503 160.991771 
L 201.288987 157.744209 
L 206.412945 154.557695 
L 208.974924 151.371699 
L 214.098882 145.886084 
L 216.660861 143.547605 
L 221.784818 139.521629 
L 226.908776 135.903887 
L 232.032734 132.607315 
L 237.156692 130.224587 
L 244.842628 126.999604 
L 280.710333 111.642548 
L 308.892101 100.441866 
L 316.578037 97.327331 
L 357.5697 79.942998 
L 375.503552 72.822857 
L 383.189488 69.546254 
L 398.561362 62.83984 
L 408.809277 58.549083 
L 408.809277 58.549083 
" style="fill:none;stroke:#c44e52;stroke-linecap:round;stroke-width:1.2;"/>
   </g>
   <g id="line2d_15">
    <path clip-path="url(#pb2aceb2d5f)" d="M -1 225.309543 
L 1.454634 224.396906 
L 4.016613 223.293415 
L 6.578592 222.332147 
L 9.140571 221.111644 
L 11.70255 220.062308 
L 16.826507 218.101603 
L 24.512444 215.149362 
L 29.636402 213.172791 
L 32.198381 212.135383 
L 37.322338 210.209522 
L 88.561916 189.086993 
L 93.685874 186.615377 
L 98.809832 184.555346 
L 116.743684 177.405741 
L 119.305663 176.444082 
L 124.429621 174.17025 
L 126.9916 173.102283 
L 129.553578 171.669757 
L 144.925452 165.342732 
L 150.04941 163.371646 
L 152.611388 162.311021 
L 155.173367 161.459968 
L 183.355135 149.455162 
L 185.917114 148.146498 
L 206.412945 139.506074 
L 208.974924 137.700124 
L 219.22284 131.229283 
L 226.908776 126.799837 
L 232.032734 123.979281 
L 237.156692 121.763558 
L 244.842628 118.577102 
L 260.214502 112.163455 
L 267.900438 108.530583 
L 275.586375 105.363463 
L 288.39627 100.307553 
L 293.520227 98.405275 
L 303.768143 94.280367 
L 316.578037 89.028083 
L 324.263974 85.775631 
L 362.693657 69.554855 
L 372.941573 65.49158 
L 383.189488 61.189899 
L 408.809277 50.256195 
L 408.809277 50.256195 
" style="fill:none;stroke:#ccb974;stroke-linecap:round;stroke-width:1.2;"/>
   </g>
   <g id="line2d_16">
    <path clip-path="url(#pb2aceb2d5f)" d="M -1 163.757343 
L 6.578592 164.138867 
L 11.70255 163.687626 
L 14.264529 163.653199 
L 16.826507 163.484149 
L 19.388486 163.534757 
L 21.950465 163.419722 
L 27.074423 163.423142 
L 32.198381 163.274273 
L 34.76036 163.351471 
L 37.322338 163.594082 
L 47.570254 163.754899 
L 50.132233 163.533291 
L 52.694212 163.472613 
L 55.256191 163.288633 
L 70.628064 162.8968 
L 75.752022 163.04496 
L 78.314001 162.875007 
L 80.87598 162.830104 
L 83.437958 162.580248 
L 91.123895 162.403629 
L 93.685874 162.181256 
L 96.247853 162.127836 
L 101.371811 161.735015 
L 109.057747 161.759218 
L 111.619726 161.390987 
L 114.181705 161.240136 
L 116.743684 160.952411 
L 124.429621 160.680879 
L 134.677536 160.143576 
L 139.801494 160.085454 
L 142.363473 159.867025 
L 144.925452 159.407274 
L 160.297325 158.779182 
L 165.421283 158.430507 
L 167.983262 158.373761 
L 170.545241 158.518498 
L 173.10722 158.238066 
L 185.917114 157.554867 
L 188.479093 157.489737 
L 193.603051 157.069085 
L 198.727008 156.994541 
L 201.288987 156.775548 
L 203.850966 156.711964 
L 206.412945 156.42317 
L 208.974924 155.36231 
L 226.908776 149.597893 
L 229.470755 148.701187 
L 232.032734 147.465763 
L 237.156692 146.278557 
L 247.404607 144.398541 
L 255.090544 142.613643 
L 257.652523 142.203348 
L 260.214502 141.652045 
L 267.900438 138.941957 
L 278.148354 135.152092 
L 283.272312 133.356315 
L 285.834291 132.452735 
L 288.39627 131.681162 
L 301.206164 127.249339 
L 303.768143 126.233896 
L 308.892101 124.402849 
L 321.701995 119.494536 
L 324.263974 117.096847 
L 326.825953 114.924169 
L 331.949911 110.967684 
L 339.635847 105.678996 
L 342.197826 104.059363 
L 344.759805 102.248555 
L 347.321784 100.615744 
L 357.5697 95.949619 
L 362.693657 94.115473 
L 367.817615 92.410735 
L 372.941573 90.547254 
L 390.875425 83.288105 
L 395.999383 81.172199 
L 408.809277 76.327181 
L 408.809277 76.327181 
" style="fill:none;stroke:#4c72b0;stroke-dasharray:11.1,4.8;stroke-dashoffset:0;stroke-width:3;"/>
   </g>
   <g id="line2d_17">
    <path clip-path="url(#pb2aceb2d5f)" d="M -1 257.731913 
L 1.454634 256.506812 
L 4.016613 255.688506 
L 6.578592 254.438892 
L 9.140571 253.619452 
L 14.264529 251.59597 
L 19.388486 249.884016 
L 24.512444 247.31774 
L 27.074423 246.759337 
L 29.636402 245.770682 
L 34.76036 243.018975 
L 37.322338 242.041494 
L 39.884317 241.191819 
L 42.446296 240.149823 
L 45.008275 238.641441 
L 50.132233 236.957758 
L 52.694212 235.885497 
L 55.256191 234.611536 
L 60.380148 233.084793 
L 65.504106 231.10143 
L 68.066085 229.373855 
L 75.752022 225.816871 
L 78.314001 224.645751 
L 80.87598 223.307075 
L 83.437958 222.311268 
L 85.999937 221.487871 
L 88.561916 220.400721 
L 91.123895 219.447839 
L 93.685874 218.859065 
L 96.247853 217.703853 
L 98.809832 216.922253 
L 103.93379 215.156301 
L 106.495768 214.488833 
L 109.057747 213.286108 
L 111.619726 211.625026 
L 114.181705 210.801405 
L 116.743684 209.790077 
L 119.305663 208.349257 
L 121.867642 207.604664 
L 124.429621 206.618986 
L 126.9916 205.266384 
L 134.677536 202.040424 
L 137.239515 201.471409 
L 139.801494 200.095062 
L 144.925452 198.186261 
L 147.487431 196.646331 
L 152.611388 194.515786 
L 155.173367 193.746796 
L 157.735346 192.309089 
L 160.297325 191.306834 
L 162.859304 189.947023 
L 167.983262 187.901849 
L 170.545241 186.632573 
L 173.10722 185.828766 
L 178.231177 183.554129 
L 180.793156 181.829581 
L 183.355135 180.869198 
L 188.479093 177.748784 
L 191.041072 176.358066 
L 193.603051 174.226417 
L 196.16503 172.559964 
L 201.288987 168.992583 
L 206.412945 165.52753 
L 208.974924 160.419517 
L 211.536903 156.310772 
L 214.098882 152.723937 
L 216.660861 149.838205 
L 219.22284 147.304686 
L 224.346797 142.805666 
L 226.908776 140.725686 
L 232.032734 136.894657 
L 237.156692 134.498529 
L 242.28065 132.242179 
L 249.966586 128.776689 
L 267.900438 120.767408 
L 275.586375 117.408351 
L 290.958248 111.585492 
L 298.644185 108.775278 
L 303.768143 106.696163 
L 311.45408 103.484219 
L 321.701995 99.380616 
L 331.949911 94.832309 
L 349.883763 86.88216 
L 375.503552 76.654356 
L 383.189488 73.329468 
L 403.68532 64.29621 
L 408.809277 62.211526 
L 408.809277 62.211526 
" style="fill:none;stroke:#c44e52;stroke-dasharray:4.44,1.92;stroke-dashoffset:0;stroke-width:1.2;"/>
   </g>
   <g id="line2d_18">
    <path clip-path="url(#pb2aceb2d5f)" d="M -1 233.62462 
L 4.016613 231.881341 
L 11.70255 228.878969 
L 16.826507 226.856032 
L 21.950465 224.873746 
L 24.512444 223.670255 
L 32.198381 220.649068 
L 37.322338 218.597405 
L 45.008275 215.547904 
L 47.570254 214.434269 
L 50.132233 213.626305 
L 60.380148 209.547266 
L 62.942127 208.234007 
L 65.504106 207.219786 
L 68.066085 206.043143 
L 75.752022 202.887964 
L 80.87598 200.667528 
L 85.999937 198.663368 
L 88.561916 197.80457 
L 91.123895 196.615603 
L 101.371811 192.58694 
L 111.619726 188.387135 
L 119.305663 185.2391 
L 129.553578 180.940151 
L 139.801494 176.624562 
L 162.859304 166.874706 
L 170.545241 163.331395 
L 175.669198 161.157518 
L 178.231177 159.556206 
L 185.917114 156.257972 
L 201.288987 149.633589 
L 203.850966 148.717766 
L 206.412945 147.580322 
L 211.536903 143.365952 
L 214.098882 141.336353 
L 219.22284 137.786201 
L 226.908776 132.89492 
L 232.032734 129.774189 
L 280.710333 109.175674 
L 293.520227 104.214491 
L 301.206164 101.19266 
L 314.016058 95.917779 
L 324.263974 91.629846 
L 347.321784 81.497424 
L 383.189488 66.882329 
L 408.809277 55.672819 
L 408.809277 55.672819 
" style="fill:none;stroke:#ccb974;stroke-dasharray:4.44,1.92;stroke-dashoffset:0;stroke-width:1.2;"/>
   </g>
   <g id="patch_3">
    <path d="M 68.920078 232.24 
L 68.920078 18.96 
" style="fill:none;stroke:#ffffff;stroke-linecap:square;stroke-linejoin:miter;stroke-width:1.25;"/>
   </g>
   <g id="patch_4">
    <path d="M 408.809277 232.24 
L 408.809277 18.96 
" style="fill:none;stroke:#ffffff;stroke-linecap:square;stroke-linejoin:miter;stroke-width:1.25;"/>
   </g>
   <g id="patch_5">
    <path d="M 68.920078 232.24 
L 408.809277 232.24 
" style="fill:none;stroke:#ffffff;stroke-linecap:square;stroke-linejoin:miter;stroke-width:1.25;"/>
   </g>
   <g id="patch_6">
    <path d="M 68.920078 18.96 
L 408.809277 18.96 
" style="fill:none;stroke:#ffffff;stroke-linecap:square;stroke-linejoin:miter;stroke-width:1.25;"/>
   </g>
   <g id="legend_1">
    <g id="line2d_19">
     <path d="M 83.220078 37.768281 
L 105.220078 37.768281 
" style="fill:none;stroke:#4c72b0;stroke-linecap:round;stroke-width:3;"/>
    </g>
    <g id="line2d_20"/>
    <g id="text_15">
     <!-- mtalg - standard normal -->
     <defs>
      <path d="M 9.421875 75.984375 
L 18.40625 75.984375 
L 18.40625 0 
L 9.421875 0 
z
" id="DejaVuSans-108"/>
      <path d="M 45.40625 27.984375 
Q 45.40625 37.75 41.375 43.109375 
Q 37.359375 48.484375 30.078125 48.484375 
Q 22.859375 48.484375 18.828125 43.109375 
Q 14.796875 37.75 14.796875 27.984375 
Q 14.796875 18.265625 18.828125 12.890625 
Q 22.859375 7.515625 30.078125 7.515625 
Q 37.359375 7.515625 41.375 12.890625 
Q 45.40625 18.265625 45.40625 27.984375 
z
M 54.390625 6.78125 
Q 54.390625 -7.171875 48.1875 -13.984375 
Q 42 -20.796875 29.203125 -20.796875 
Q 24.46875 -20.796875 20.265625 -20.09375 
Q 16.0625 -19.390625 12.109375 -17.921875 
L 12.109375 -9.1875 
Q 16.0625 -11.328125 19.921875 -12.34375 
Q 23.78125 -13.375 27.78125 -13.375 
Q 36.625 -13.375 41.015625 -8.765625 
Q 45.40625 -4.15625 45.40625 5.171875 
L 45.40625 9.625 
Q 42.625 4.78125 38.28125 2.390625 
Q 33.9375 0 27.875 0 
Q 17.828125 0 11.671875 7.65625 
Q 5.515625 15.328125 5.515625 27.984375 
Q 5.515625 40.671875 11.671875 48.328125 
Q 17.828125 56 27.875 56 
Q 33.9375 56 38.28125 53.609375 
Q 42.625 51.21875 45.40625 46.390625 
L 45.40625 54.6875 
L 54.390625 54.6875 
z
" id="DejaVuSans-103"/>
      <path d="M 4.890625 31.390625 
L 31.203125 31.390625 
L 31.203125 23.390625 
L 4.890625 23.390625 
z
" id="DejaVuSans-45"/>
      <path d="M 45.40625 46.390625 
L 45.40625 75.984375 
L 54.390625 75.984375 
L 54.390625 0 
L 45.40625 0 
L 45.40625 8.203125 
Q 42.578125 3.328125 38.25 0.953125 
Q 33.9375 -1.421875 27.875 -1.421875 
Q 17.96875 -1.421875 11.734375 6.484375 
Q 5.515625 14.40625 5.515625 27.296875 
Q 5.515625 40.1875 11.734375 48.09375 
Q 17.96875 56 27.875 56 
Q 33.9375 56 38.25 53.625 
Q 42.578125 51.265625 45.40625 46.390625 
z
M 14.796875 27.296875 
Q 14.796875 17.390625 18.875 11.75 
Q 22.953125 6.109375 30.078125 6.109375 
Q 37.203125 6.109375 41.296875 11.75 
Q 45.40625 17.390625 45.40625 27.296875 
Q 45.40625 37.203125 41.296875 42.84375 
Q 37.203125 48.484375 30.078125 48.484375 
Q 22.953125 48.484375 18.875 42.84375 
Q 14.796875 37.203125 14.796875 27.296875 
z
" id="DejaVuSans-100"/>
     </defs>
     <g style="fill:#262626;" transform="translate(114.020078 41.618281)scale(0.11 -0.11)">
      <use xlink:href="#DejaVuSans-109"/>
      <use x="97.412109" xlink:href="#DejaVuSans-116"/>
      <use x="136.621094" xlink:href="#DejaVuSans-97"/>
      <use x="197.900391" xlink:href="#DejaVuSans-108"/>
      <use x="225.683594" xlink:href="#DejaVuSans-103"/>
      <use x="289.160156" xlink:href="#DejaVuSans-32"/>
      <use x="320.947266" xlink:href="#DejaVuSans-45"/>
      <use x="357.03125" xlink:href="#DejaVuSans-32"/>
      <use x="388.818359" xlink:href="#DejaVuSans-115"/>
      <use x="440.917969" xlink:href="#DejaVuSans-116"/>
      <use x="480.126953" xlink:href="#DejaVuSans-97"/>
      <use x="541.40625" xlink:href="#DejaVuSans-110"/>
      <use x="604.785156" xlink:href="#DejaVuSans-100"/>
      <use x="668.261719" xlink:href="#DejaVuSans-97"/>
      <use x="729.541016" xlink:href="#DejaVuSans-114"/>
      <use x="770.638672" xlink:href="#DejaVuSans-100"/>
      <use x="834.115234" xlink:href="#DejaVuSans-32"/>
      <use x="865.902344" xlink:href="#DejaVuSans-110"/>
      <use x="929.28125" xlink:href="#DejaVuSans-111"/>
      <use x="990.462891" xlink:href="#DejaVuSans-114"/>
      <use x="1031.560547" xlink:href="#DejaVuSans-109"/>
      <use x="1128.972656" xlink:href="#DejaVuSans-97"/>
      <use x="1190.251953" xlink:href="#DejaVuSans-108"/>
     </g>
    </g>
    <g id="line2d_21">
     <path d="M 83.220078 53.914219 
L 105.220078 53.914219 
" style="fill:none;stroke:#c44e52;stroke-linecap:round;stroke-width:1.2;"/>
    </g>
    <g id="line2d_22"/>
    <g id="text_16">
     <!-- mkl_random - standard_normal -->
     <defs>
      <path d="M 9.078125 75.984375 
L 18.109375 75.984375 
L 18.109375 31.109375 
L 44.921875 54.6875 
L 56.390625 54.6875 
L 27.390625 29.109375 
L 57.625 0 
L 45.90625 0 
L 18.109375 26.703125 
L 18.109375 0 
L 9.078125 0 
z
" id="DejaVuSans-107"/>
      <path d="M 50.984375 -16.609375 
L 50.984375 -23.578125 
L -0.984375 -23.578125 
L -0.984375 -16.609375 
z
" id="DejaVuSans-95"/>
     </defs>
     <g style="fill:#262626;" transform="translate(114.020078 57.764219)scale(0.11 -0.11)">
      <use xlink:href="#DejaVuSans-109"/>
      <use x="97.412109" xlink:href="#DejaVuSans-107"/>
      <use x="155.322266" xlink:href="#DejaVuSans-108"/>
      <use x="183.105469" xlink:href="#DejaVuSans-95"/>
      <use x="233.105469" xlink:href="#DejaVuSans-114"/>
      <use x="274.21875" xlink:href="#DejaVuSans-97"/>
      <use x="335.498047" xlink:href="#DejaVuSans-110"/>
      <use x="398.876953" xlink:href="#DejaVuSans-100"/>
      <use x="462.353516" xlink:href="#DejaVuSans-111"/>
      <use x="523.535156" xlink:href="#DejaVuSans-109"/>
      <use x="620.947266" xlink:href="#DejaVuSans-32"/>
      <use x="652.734375" xlink:href="#DejaVuSans-45"/>
      <use x="688.818359" xlink:href="#DejaVuSans-32"/>
      <use x="720.605469" xlink:href="#DejaVuSans-115"/>
      <use x="772.705078" xlink:href="#DejaVuSans-116"/>
      <use x="811.914062" xlink:href="#DejaVuSans-97"/>
      <use x="873.193359" xlink:href="#DejaVuSans-110"/>
      <use x="936.572266" xlink:href="#DejaVuSans-100"/>
      <use x="1000.048828" xlink:href="#DejaVuSans-97"/>
      <use x="1061.328125" xlink:href="#DejaVuSans-114"/>
      <use x="1102.425781" xlink:href="#DejaVuSans-100"/>
      <use x="1165.902344" xlink:href="#DejaVuSans-95"/>
      <use x="1215.902344" xlink:href="#DejaVuSans-110"/>
      <use x="1279.28125" xlink:href="#DejaVuSans-111"/>
      <use x="1340.462891" xlink:href="#DejaVuSans-114"/>
      <use x="1381.560547" xlink:href="#DejaVuSans-109"/>
      <use x="1478.972656" xlink:href="#DejaVuSans-97"/>
      <use x="1540.251953" xlink:href="#DejaVuSans-108"/>
     </g>
    </g>
    <g id="line2d_23">
     <path d="M 83.220078 70.366094 
L 105.220078 70.366094 
" style="fill:none;stroke:#ccb974;stroke-linecap:round;stroke-width:1.2;"/>
    </g>
    <g id="line2d_24"/>
    <g id="text_17">
     <!-- numpy - standard normal -->
     <g style="fill:#262626;" transform="translate(114.020078 74.216094)scale(0.11 -0.11)">
      <use xlink:href="#DejaVuSans-110"/>
      <use x="63.378906" xlink:href="#DejaVuSans-117"/>
      <use x="126.757812" xlink:href="#DejaVuSans-109"/>
      <use x="224.169922" xlink:href="#DejaVuSans-112"/>
      <use x="287.646484" xlink:href="#DejaVuSans-121"/>
      <use x="346.826172" xlink:href="#DejaVuSans-32"/>
      <use x="378.613281" xlink:href="#DejaVuSans-45"/>
      <use x="414.697266" xlink:href="#DejaVuSans-32"/>
      <use x="446.484375" xlink:href="#DejaVuSans-115"/>
      <use x="498.583984" xlink:href="#DejaVuSans-116"/>
      <use x="537.792969" xlink:href="#DejaVuSans-97"/>
      <use x="599.072266" xlink:href="#DejaVuSans-110"/>
      <use x="662.451172" xlink:href="#DejaVuSans-100"/>
      <use x="725.927734" xlink:href="#DejaVuSans-97"/>
      <use x="787.207031" xlink:href="#DejaVuSans-114"/>
      <use x="828.304688" xlink:href="#DejaVuSans-100"/>
      <use x="891.78125" xlink:href="#DejaVuSans-32"/>
      <use x="923.568359" xlink:href="#DejaVuSans-110"/>
      <use x="986.947266" xlink:href="#DejaVuSans-111"/>
      <use x="1048.128906" xlink:href="#DejaVuSans-114"/>
      <use x="1089.226562" xlink:href="#DejaVuSans-109"/>
      <use x="1186.638672" xlink:href="#DejaVuSans-97"/>
      <use x="1247.917969" xlink:href="#DejaVuSans-108"/>
     </g>
    </g>
    <g id="line2d_25">
     <path d="M 83.220078 86.512031 
L 105.220078 86.512031 
" style="fill:none;stroke:#4c72b0;stroke-dasharray:11.1,4.8;stroke-dashoffset:0;stroke-width:3;"/>
    </g>
    <g id="line2d_26"/>
    <g id="text_18">
     <!-- mtalg - uniform -->
     <g style="fill:#262626;" transform="translate(114.020078 90.362031)scale(0.11 -0.11)">
      <use xlink:href="#DejaVuSans-109"/>
      <use x="97.412109" xlink:href="#DejaVuSans-116"/>
      <use x="136.621094" xlink:href="#DejaVuSans-97"/>
      <use x="197.900391" xlink:href="#DejaVuSans-108"/>
      <use x="225.683594" xlink:href="#DejaVuSans-103"/>
      <use x="289.160156" xlink:href="#DejaVuSans-32"/>
      <use x="320.947266" xlink:href="#DejaVuSans-45"/>
      <use x="357.03125" xlink:href="#DejaVuSans-32"/>
      <use x="388.818359" xlink:href="#DejaVuSans-117"/>
      <use x="452.197266" xlink:href="#DejaVuSans-110"/>
      <use x="515.576172" xlink:href="#DejaVuSans-105"/>
      <use x="543.359375" xlink:href="#DejaVuSans-102"/>
      <use x="578.564453" xlink:href="#DejaVuSans-111"/>
      <use x="639.746094" xlink:href="#DejaVuSans-114"/>
      <use x="680.84375" xlink:href="#DejaVuSans-109"/>
     </g>
    </g>
    <g id="line2d_27">
     <path d="M 83.220078 102.657969 
L 105.220078 102.657969 
" style="fill:none;stroke:#c44e52;stroke-dasharray:4.44,1.92;stroke-dashoffset:0;stroke-width:1.2;"/>
    </g>
    <g id="line2d_28"/>
    <g id="text_19">
     <!-- mkl_random - uniform -->
     <g style="fill:#262626;" transform="translate(114.020078 106.507969)scale(0.11 -0.11)">
      <use xlink:href="#DejaVuSans-109"/>
      <use x="97.412109" xlink:href="#DejaVuSans-107"/>
      <use x="155.322266" xlink:href="#DejaVuSans-108"/>
      <use x="183.105469" xlink:href="#DejaVuSans-95"/>
      <use x="233.105469" xlink:href="#DejaVuSans-114"/>
      <use x="274.21875" xlink:href="#DejaVuSans-97"/>
      <use x="335.498047" xlink:href="#DejaVuSans-110"/>
      <use x="398.876953" xlink:href="#DejaVuSans-100"/>
      <use x="462.353516" xlink:href="#DejaVuSans-111"/>
      <use x="523.535156" xlink:href="#DejaVuSans-109"/>
      <use x="620.947266" xlink:href="#DejaVuSans-32"/>
      <use x="652.734375" xlink:href="#DejaVuSans-45"/>
      <use x="688.818359" xlink:href="#DejaVuSans-32"/>
      <use x="720.605469" xlink:href="#DejaVuSans-117"/>
      <use x="783.984375" xlink:href="#DejaVuSans-110"/>
      <use x="847.363281" xlink:href="#DejaVuSans-105"/>
      <use x="875.146484" xlink:href="#DejaVuSans-102"/>
      <use x="910.351562" xlink:href="#DejaVuSans-111"/>
      <use x="971.533203" xlink:href="#DejaVuSans-114"/>
      <use x="1012.630859" xlink:href="#DejaVuSans-109"/>
     </g>
    </g>
    <g id="line2d_29">
     <path d="M 83.220078 119.109844 
L 105.220078 119.109844 
" style="fill:none;stroke:#ccb974;stroke-dasharray:4.44,1.92;stroke-dashoffset:0;stroke-width:1.2;"/>
    </g>
    <g id="line2d_30"/>
    <g id="text_20">
     <!-- numpy - uniform -->
     <g style="fill:#262626;" transform="translate(114.020078 122.959844)scale(0.11 -0.11)">
      <use xlink:href="#DejaVuSans-110"/>
      <use x="63.378906" xlink:href="#DejaVuSans-117"/>
      <use x="126.757812" xlink:href="#DejaVuSans-109"/>
      <use x="224.169922" xlink:href="#DejaVuSans-112"/>
      <use x="287.646484" xlink:href="#DejaVuSans-121"/>
      <use x="346.826172" xlink:href="#DejaVuSans-32"/>
      <use x="378.613281" xlink:href="#DejaVuSans-45"/>
      <use x="414.697266" xlink:href="#DejaVuSans-32"/>
      <use x="446.484375" xlink:href="#DejaVuSans-117"/>
      <use x="509.863281" xlink:href="#DejaVuSans-110"/>
      <use x="573.242188" xlink:href="#DejaVuSans-105"/>
      <use x="601.025391" xlink:href="#DejaVuSans-102"/>
      <use x="636.230469" xlink:href="#DejaVuSans-111"/>
      <use x="697.412109" xlink:href="#DejaVuSans-114"/>
      <use x="738.509766" xlink:href="#DejaVuSans-109"/>
     </g>
    </g>
   </g>
  </g>
 </g>
 <defs>
  <clipPath id="pb2aceb2d5f">
   <rect height="213.28" width="339.889199" x="68.920078" y="18.96"/>
  </clipPath>
 </defs>
</svg>
